<svg width="24" height="24" viewBox="0 0 24 24" fill="none" xmlns="http://www.w3.org/2000/svg">
<path d="M11.9998 0.666504C13.5027 0.666504 14.9441 1.26353 16.0068 2.32623C17.0695 3.38894 17.6665 4.83028 17.6665 6.33317C17.6665 7.83606 17.0695 9.2774 16.0068 10.3401C14.9441 11.4028 13.5027 11.9998 11.9998 11.9998C10.4969 11.9998 9.05561 11.4028 7.9929 10.3401C6.93019 9.2774 6.33317 7.83606 6.33317 6.33317C6.33317 4.83028 6.93019 3.38894 7.9929 2.32623C9.05561 1.26353 10.4969 0.666504 11.9998 0.666504ZM11.9998 14.8332C18.2615 14.8332 23.3332 17.369 23.3332 20.4998V23.3332H0.666504V20.4998C0.666504 17.369 5.73817 14.8332 11.9998 14.8332Z" fill="white"/>
</svg>
