<svg width="34" height="34" viewBox="0 0 34 34" fill="none" xmlns="http://www.w3.org/2000/svg">
<path d="M16.9998 5.66663C18.5027 5.66663 19.9441 6.26365 21.0068 7.32635C22.0695 8.38906 22.6665 9.8304 22.6665 11.3333C22.6665 12.8362 22.0695 14.2775 21.0068 15.3402C19.9441 16.4029 18.5027 17 16.9998 17C15.4969 17 14.0556 16.4029 12.9929 15.3402C11.9302 14.2775 11.3332 12.8362 11.3332 11.3333C11.3332 9.8304 11.9302 8.38906 12.9929 7.32635C14.0556 6.26365 15.4969 5.66663 16.9998 5.66663ZM16.9998 19.8333C23.2615 19.8333 28.3332 22.3691 28.3332 25.5V28.3333H5.6665V25.5C5.6665 22.3691 10.7382 19.8333 16.9998 19.8333Z" fill="#1B065E"/>
</svg>
