<svg width="34" height="34" viewBox="0 0 34 34" fill="none" xmlns="http://www.w3.org/2000/svg">
<path d="M12.75 28.3334C12.75 29.8917 11.475 31.1667 9.91667 31.1667C8.35833 31.1667 7.0975 29.8917 7.0975 28.3334C7.0975 26.775 8.35833 25.5 9.91667 25.5C11.475 25.5 12.75 26.775 12.75 28.3334ZM24.0833 25.5C22.525 25.5 21.2642 26.775 21.2642 28.3334C21.2642 29.8917 22.525 31.1667 24.0833 31.1667C25.6417 31.1667 26.9167 29.8917 26.9167 28.3334C26.9167 26.775 25.6417 25.5 24.0833 25.5ZM24.6443 18.4167C25.2889 18.4166 25.9141 18.1967 26.4169 17.7934C26.9196 17.3901 27.2698 16.8274 27.4097 16.1982L29.75 7.08337H9.91667V5.66671C9.91667 4.91526 9.61816 4.19459 9.0868 3.66324C8.55545 3.13188 7.83478 2.83337 7.08333 2.83337H4.25V5.66671H7.08333V21.25C7.08333 22.0015 7.38184 22.7222 7.9132 23.2535C8.44455 23.7849 9.16522 24.0834 9.91667 24.0834H26.9167C26.9167 23.3319 26.6182 22.6113 26.0868 22.0799C25.5554 21.5486 24.8348 21.25 24.0833 21.25H9.91667V18.4167H24.6443Z" fill="#1B065E"/>
</svg>
