<svg width="26" height="30" viewBox="0 0 26 30" fill="none" xmlns="http://www.w3.org/2000/svg">
<path d="M8.75 26.3335C8.75 27.8918 7.475 29.1668 5.91667 29.1668C4.35833 29.1668 3.0975 27.8918 3.0975 26.3335C3.0975 24.7752 4.35833 23.5002 5.91667 23.5002C7.475 23.5002 8.75 24.7752 8.75 26.3335ZM20.0833 23.5002C18.525 23.5002 17.2642 24.7752 17.2642 26.3335C17.2642 27.8918 18.525 29.1668 20.0833 29.1668C21.6417 29.1668 22.9167 27.8918 22.9167 26.3335C22.9167 24.7752 21.6417 23.5002 20.0833 23.5002ZM20.6443 16.4168C21.2889 16.4167 21.9141 16.1969 22.4169 15.7935C22.9196 15.3902 23.2698 14.8275 23.4097 14.1983L25.75 5.0835H5.91667V3.66683C5.91667 2.91538 5.61816 2.19471 5.0868 1.66336C4.55545 1.13201 3.83478 0.833496 3.08333 0.833496H0.25V3.66683H3.08333V19.2502C3.08333 20.0016 3.38184 20.7223 3.9132 21.2536C4.44455 21.785 5.16522 22.0835 5.91667 22.0835H22.9167C22.9167 21.3321 22.6182 20.6114 22.0868 20.08C21.5554 19.5487 20.8348 19.2502 20.0833 19.2502H5.91667V16.4168H20.6443Z" fill="white"/>
</svg>
