<svg width="48" height="26" viewBox="0 0 48 26" fill="none" xmlns="http://www.w3.org/2000/svg">
<path d="M16.7037 20.5543C16.7758 20.002 17.2463 19.5889 17.8032 19.5889H29.7161C30.273 19.5889 30.7435 20.002 30.8156 20.5543L31.3579 24.7123C31.4445 25.376 30.9277 25.9645 30.2584 25.9645H17.2609C16.5915 25.9645 16.0748 25.376 16.1614 24.7123L16.7037 20.5543Z" fill="white"/>
<path d="M32.7542 20.8401C32.6676 20.1764 33.1843 19.5879 33.8536 19.5879H44.7626C45.2671 19.5879 45.7081 19.9286 45.8355 20.4168L46.9202 24.5748C47.1034 25.2773 46.5733 25.9635 45.8473 25.9635H34.396C33.8391 25.9635 33.3685 25.5504 33.2965 24.9981L32.7542 20.8401Z" fill="white"/>
<path d="M31.9226 12.5647C31.836 11.901 32.3528 11.3125 33.0221 11.3125H42.8222C43.3268 11.3125 43.7677 11.6532 43.8951 12.1414L44.9798 16.2994C45.1631 17.0019 44.6329 17.6881 43.9069 17.6881H33.5644C33.0075 17.6881 32.537 17.275 32.465 16.7227L31.9226 12.5647Z" fill="white"/>
<path d="M14.7659 20.8411C14.8524 20.1774 14.3357 19.5889 13.6664 19.5889H2.75745C2.25288 19.5889 1.81193 19.9295 1.68456 20.4178L0.599866 24.5758C0.4166 25.2783 0.946732 25.9645 1.67276 25.9645H13.124C13.681 25.9645 14.1515 25.5513 14.2235 24.9991L14.7659 20.8411Z" fill="white"/>
<path d="M15.5974 12.5647C15.684 11.901 15.1672 11.3125 14.4979 11.3125H4.6978C4.19322 11.3125 3.75227 11.6532 3.6249 12.1414L2.54021 16.2994C2.35694 17.0019 2.88707 17.6881 3.6131 17.6881H13.9556C14.5125 17.6881 14.983 17.275 15.0551 16.7227L15.5974 12.5647Z" fill="white"/>
<path d="M16.4285 4.28737C16.515 3.62367 15.9983 3.03516 15.329 3.03516H6.36045C5.85587 3.03516 5.41492 3.37583 5.28756 3.86407L4.20286 8.02207C4.0196 8.72459 4.54973 9.41076 5.27576 9.41076H14.7866C15.3436 9.41076 15.8141 8.99763 15.8861 8.44537L16.4285 4.28737Z" fill="white"/>
<path d="M17.4584 12.293C17.5235 11.7341 17.997 11.3125 18.5597 11.3125H28.9604C29.5232 11.3125 29.9967 11.7341 30.0618 12.293L30.546 16.451C30.6227 17.1098 30.1079 17.6881 29.4447 17.6881H18.0755C17.4123 17.6881 16.8974 17.1098 16.9741 16.451L17.4584 12.293Z" fill="white"/>
<path d="M18.2125 4.03091C18.2705 3.46527 18.7469 3.03516 19.3155 3.03516H28.2036C28.7722 3.03516 29.2486 3.46527 29.3066 4.03091L29.7327 8.18891C29.7997 8.84257 29.2868 9.41076 28.6297 9.41076H18.8894C18.2323 9.41076 17.7194 8.84257 17.7864 8.18891L18.2125 4.03091Z" fill="white"/>
<path d="M20.4393 15.7315C20.4393 16.6323 20.8652 17.4327 21.5255 17.9437L20.2929 19.8651C19.7147 20.7665 20.3619 21.9507 21.4328 21.9507H25.0372C26.1082 21.9507 26.7554 20.7665 26.1772 19.8651L24.9446 17.9437C25.6049 17.4327 26.0308 16.6323 26.0308 15.7315C26.0308 14.1874 24.7791 12.9357 23.235 12.9357C21.691 12.9357 20.4393 14.1874 20.4393 15.7315Z" fill="white" stroke="#1B065E" stroke-width="1.2672"/>
<path d="M7.13263 8.52446C7.13263 9.42526 7.55854 10.2257 8.21886 10.7367L6.98627 12.6581C6.40803 13.5594 7.05529 14.7436 8.1262 14.7436H11.7306C12.8015 14.7436 13.4488 13.5594 12.8705 12.6581L11.6379 10.7367C12.2983 10.2257 12.7242 9.42526 12.7242 8.52446C12.7242 6.98041 11.4725 5.7287 9.9284 5.7287C8.38434 5.7287 7.13263 6.98041 7.13263 8.52446Z" fill="white" stroke="#1B065E" stroke-width="1.2672"/>
<path d="M37.8123 9.98524C38.2934 9.98524 38.6835 9.59519 38.6835 9.11404V6.81724H40.9803C41.4614 6.81724 41.8515 6.42719 41.8515 5.94604V4.83724C41.8515 4.35609 41.4614 3.96604 40.9803 3.96604H38.6835V1.66924C38.6835 1.18809 38.2934 0.798041 37.8123 0.798041H36.7035C36.2223 0.798041 35.8323 1.18809 35.8323 1.66924V3.96604H33.5355C33.0543 3.96604 32.6643 4.35609 32.6643 4.83724V5.94604C32.6643 6.42719 33.0543 6.81724 33.5355 6.81724H35.8323V9.11404C35.8323 9.59519 36.2223 9.98524 36.7035 9.98524H37.8123Z" fill="white" stroke="#1B065E" stroke-width="1.2672"/>
</svg>
