<svg width="24" height="23" viewBox="0 0 24 23" fill="none" xmlns="http://www.w3.org/2000/svg">
<path d="M23.0325 11.3221L12.5741 0.871317C12.4988 0.795866 12.4094 0.736007 12.3109 0.695165C12.2124 0.654323 12.1069 0.633301 12.0003 0.633301C11.8937 0.633301 11.7881 0.654323 11.6897 0.695165C11.5912 0.736007 11.5018 0.795866 11.4265 0.871317L0.968066 11.3221C0.663379 11.6268 0.490723 12.0407 0.490723 12.4723C0.490723 13.3686 1.21943 14.0973 2.11572 14.0973H3.21768V21.5545C3.21768 22.0039 3.58076 22.367 4.03018 22.367H10.3753V16.6795H13.219V22.367H19.9704C20.4198 22.367 20.7829 22.0039 20.7829 21.5545V14.0973H21.8849C22.3165 14.0973 22.7304 13.9272 23.0351 13.62C23.6673 12.9852 23.6673 11.9569 23.0325 11.3221Z" fill="white"/>
</svg>
