<svg width="214" height="61" viewBox="0 0 214 61" fill="none" xmlns="http://www.w3.org/2000/svg">
<path d="M23.0131 6.81621C23.0131 9.14901 23.0131 12.6586 23.0131 16.3288C23.0131 20.9167 12.8006 27.3967 9.04219 29.4184C5.2838 31.4402 6.50203 38.4645 9.04219 42.0415C11.5824 45.6184 21.4838 48.1586 23.0131 46.2924C24.5424 44.4261 11.6503 29.5999 26.7715 26.0229C41.8927 22.446 39.887 39.6568 37.8393 42.0415C35.7917 44.4261 29.4783 44.7631 16.7145 35.2245C3.95072 25.686 15.8592 18.3506 18.5808 17.1583C21.3024 15.966 30.5299 19.7244 31.8777 23.1199C33.2256 26.5154 29.1561 31.3106 26.7715 33.6952C24.3869 36.0799 18.4252 38.4645 18.5808 44.7631C18.7363 51.0616 25.0867 56.142 26.6419 54.7941C28.1971 53.4463 28.8451 52.2794 28.8451 48.599C28.8451 44.7088 31.3593 44.7631 31.8777 38.4645C32.3961 32.166 30.5299 28.7445 23.0131 26.0229C15.4963 23.3013 16.0406 35.2245 15.8592 38.4645C15.6777 41.7045 29.4931 51.0616 33.407 38.4645C37.3209 25.8674 22.026 19.6808 12.8006 20.7352C4.64643 21.6673 -6.89608 32.1668 11.2333 38.4421C11.2747 38.4564 11.318 38.4682 11.3611 38.4761C15.702 39.2678 25.1683 40.1199 28.8201 37.2722C33.407 33.6952 25.7347 26.6968 25.7347 20.7352C25.7347 15.966 25.7347 15.8623 25.7347 12.2853M23.0131 6.81621C20.9094 8.20233 15.998 9.33318 12.5079 3.40097C12.2376 2.94154 12.4714 2.35637 12.9873 2.22248C16.3537 1.3489 21.885 1.30749 23.0131 6.81621ZM25.7347 12.2853C26.0915 9.88558 29.686 5.61022 34.36 7.42079C34.7086 7.5558 34.9085 7.92169 34.8448 8.29C33.722 14.7849 27.5454 12.7884 25.7347 12.2853Z" stroke="white" stroke-width="1.71072"/>
<path d="M55.6108 21.115L56.0833 21.2725C57.4221 21.1675 60.5065 21.115 65.3365 21.115L67.2265 21.7056C68.434 21.8631 69.2477 22.1125 69.6677 22.4538C71.6102 24.16 72.5815 25.63 72.5815 26.8638C72.4502 27.5463 72.1746 28.6225 71.7546 30.0925C70.8358 31.0375 69.9696 31.8119 69.1558 32.4156C69.1558 32.6519 69.4052 32.8619 69.904 33.0456C70.1665 33.2294 70.5865 33.4394 71.164 33.6756C71.479 33.9906 71.9908 34.6206 72.6996 35.5656C73.6446 36.5106 74.1958 37.6525 74.3533 38.9913L74.3927 39.4244C74.3927 39.6869 74.3008 39.8181 74.1171 39.8181V39.8575C74.1171 40.015 74.2615 40.3563 74.5502 40.8813V41.2356C74.5502 41.4719 74.3665 41.9969 73.999 42.8106C73.999 43.1519 73.7102 43.375 73.1327 43.48C72.7915 43.48 72.4502 43.7163 72.109 44.1888V44.2675C72.109 44.32 72.214 44.3725 72.424 44.425V44.4644C72.3715 44.5956 72.2796 44.6613 72.1483 44.6613C72.1483 44.5038 72.109 44.425 72.0302 44.425C71.9777 44.425 71.9252 44.53 71.8727 44.74C71.4002 44.74 70.8358 44.95 70.1796 45.37V45.4488H70.2977C70.4552 45.4488 70.8358 45.3175 71.4396 45.055V45.0944C71.0458 45.4619 70.2452 45.7769 69.0377 46.0394C67.3577 46.8006 63.9715 47.1812 58.879 47.1812V47.1025L58.8396 46.9056C57.6321 46.9056 56.5296 47.1419 55.5321 47.6144C55.1121 47.6144 54.9021 46.8925 54.9021 45.4488C54.9021 45.2388 55.6896 44.9106 57.2646 44.4644C58.4196 44.3331 58.9971 44.215 58.9971 44.11V44.0706C58.8396 44.0706 58.6558 42.9681 58.4458 40.7631C58.3933 39.8969 58.3146 39.3063 58.2096 38.9913C58.2096 38.7025 58.3146 38.3219 58.5246 37.8494C58.4721 35.9594 58.3277 35.0144 58.0915 35.0144C57.934 35.0144 57.8027 32.875 57.6977 28.5963V24.58C57.1202 24.3438 56.7396 24.2256 56.5558 24.2256H56.2802C56.0965 24.2256 55.9783 24.2913 55.9258 24.4225V24.5013L55.9652 24.8163C55.9652 24.8688 55.7815 25.3019 55.414 26.1156V26.1944L54.784 26.2338C54.7052 26.1025 54.4558 26.0238 54.0358 25.9975C53.7996 25.9975 53.6421 25.2231 53.5633 23.6744C53.4846 23.2281 53.3402 22.7163 53.1302 22.1388C53.524 21.5875 53.9571 21.3119 54.4296 21.3119C54.4296 21.2594 54.8233 21.1938 55.6108 21.115ZM59.2727 22.4144L59.3515 22.4538H60.454C61.4515 22.4538 61.9502 22.3488 61.9502 22.1388V22.0994C61.9502 22.0731 61.8715 22.0338 61.714 21.9813C60.1652 22.06 59.3515 22.2044 59.2727 22.4144ZM57.5008 22.2963L58.5246 22.6113H58.6033C58.7608 22.6113 58.8921 22.5325 58.9971 22.375C58.9971 22.2438 58.6952 22.1519 58.0915 22.0994C57.6977 22.1256 57.5008 22.1913 57.5008 22.2963ZM63.0133 22.0994H62.8165V22.2175H63.0133V22.0994ZM69.3921 23.0444L69.274 23.1625V23.2019L69.4315 23.3988H69.6677L69.7465 23.2806V23.2413L69.589 23.0444H69.3921ZM59.9815 23.5956V23.6744L60.0996 23.8319H60.2571C61.5958 23.7006 62.3177 23.5431 62.4227 23.3594L62.344 23.2806C60.769 23.3594 59.9815 23.4644 59.9815 23.5956ZM60.2571 24.6588C60.4671 30.3025 60.6508 33.1244 60.8083 33.1244L60.9265 33.2031H60.9658L64.549 32.3763C66.124 32.1663 66.9115 31.9563 66.9115 31.7463C68.8015 30.2763 69.7465 29.2656 69.7465 28.7144V28.4781C69.4577 26.9819 69.3133 26.1419 69.3133 25.9581C69.3133 25.2756 68.854 24.6325 67.9352 24.0288C67.594 23.95 66.9508 23.8975 66.0058 23.8713C62.1733 24.0813 60.2571 24.3438 60.2571 24.6588ZM69.3921 24.2256H69.0377V24.3438C69.5102 24.7638 69.7465 25.3544 69.7465 26.1156C69.9565 26.8769 70.1008 27.3231 70.1796 27.4544H70.2583V27.1C70.0221 25.1838 69.7333 24.2256 69.3921 24.2256ZM71.5577 25.0919H71.4396V25.21L71.6365 25.3675H71.7546V25.2494L71.5577 25.0919ZM70.849 25.9975L70.7308 26.1156L70.7702 26.2731H70.8883L71.1246 26.0763L71.0065 25.9975H70.849ZM71.1246 27.0213L71.0065 26.9425L70.9671 26.9819V27.1788L71.0458 27.2575L71.1246 27.2181V27.0213ZM58.2096 28.0056L58.0915 28.1238V28.4781L58.2096 28.5569H58.249L58.3671 28.4781V28.3206C58.3671 28.1369 58.3146 28.0319 58.2096 28.0056ZM68.7621 31.5888L68.6046 31.7463H68.7227L68.8015 31.6675V31.5888H68.7621ZM63.0527 33.3213H63.1708V33.3606C64.7983 33.2294 65.6121 33.085 65.6121 32.9275V32.8881H65.4152C63.9715 32.9144 63.184 33.0588 63.0527 33.3213ZM67.2265 33.2819V33.3606H67.2658C67.8171 33.3606 68.5258 33.4919 69.3921 33.7544C69.4708 33.7544 69.5102 33.7019 69.5102 33.5969C69.3527 33.2294 68.9983 33.0456 68.4471 33.0456H68.014C67.489 33.0456 67.2265 33.1244 67.2265 33.2819ZM70.0221 33.8725V33.9119C70.3371 34.2794 70.6258 34.4631 70.8883 34.4631V34.4238C70.8883 34.1613 70.5996 33.9775 70.0221 33.8725ZM63.2102 34.7388C63.2102 34.7913 63.2627 34.8175 63.3677 34.8175C64.0765 34.7913 64.8246 34.6863 65.6121 34.5025L66.9902 34.4631H67.4627L67.7383 34.4238V34.345C67.7383 34.2138 67.3446 34.1481 66.5571 34.1481H65.8483C64.4308 34.1481 63.5515 34.345 63.2102 34.7388ZM62.8165 34.5813H62.659V34.66H62.8165V34.5813ZM68.8015 34.5813H68.7227V34.7388H68.8015V34.5813ZM60.7296 35.1325V35.2113H60.8477C61.504 35.1325 61.8321 35.0275 61.8321 34.8963H61.714C61.4777 34.8963 61.1496 34.975 60.7296 35.1325ZM60.6508 35.7231L60.5327 35.92L60.4933 36.7863C60.5983 41.275 60.7952 43.8213 61.084 44.425C61.2152 44.8713 61.5302 45.0944 62.029 45.0944L65.5333 45.2519C66.9508 45.1731 68.6833 44.5694 70.7308 43.4406C71.7283 42.4431 72.2271 41.7606 72.2271 41.3931C72.3321 41.3931 72.3977 41.2619 72.424 40.9994V40.8813C72.424 39.7 72.0696 38.44 71.3608 37.1013C70.6258 36.3138 70.0352 35.92 69.589 35.92H69.274C69.1165 35.8675 69.0377 35.8281 69.0377 35.8019C69.0377 35.6969 69.1296 35.6444 69.3133 35.6444V35.5656C69.1296 35.3031 68.8408 35.1719 68.4471 35.1719H68.4077V35.2113L68.6046 35.4475V35.5263H68.5258C67.3183 35.1325 66.3471 34.9356 65.6121 34.9356H65.4152C63.604 34.9356 62.0158 35.1981 60.6508 35.7231ZM71.1246 35.2506L71.0065 35.3294C71.1115 35.7231 71.4396 36.13 71.9908 36.55H72.109V36.3925C72.0302 36.025 71.7152 35.6444 71.164 35.2506H71.1246ZM70.6521 44.5038L70.7308 44.5825H70.7702C71.1115 44.5825 71.374 44.3856 71.5577 43.9919V43.9525H71.5183C70.9408 44.1363 70.6521 44.32 70.6521 44.5038ZM59.4696 44.1888H59.2333V44.2281C59.2596 44.3331 59.3515 44.3856 59.509 44.3856V44.2675L59.4696 44.1888ZM69.589 44.9763V45.1338H69.7465C69.9302 45.1338 70.1008 45.0156 70.2583 44.7794V44.6613C69.8121 44.74 69.589 44.845 69.589 44.9763ZM58.4065 45.6456H58.1308V45.8425H58.4065H58.6033H58.8396V45.6456H58.6033H58.4065ZM62.1077 46.0394L62.029 46.1181H62.2258L62.1077 46.0394ZM56.6346 46.1969L56.5165 46.2362C56.569 46.3675 56.674 46.4331 56.8315 46.4331L56.989 46.2362L56.9102 46.1969H56.6346ZM90.1033 27.6513C91.1271 27.6513 91.9933 28.3731 92.7021 29.8169C92.8333 29.8169 93.0171 29.9875 93.2533 30.3288L93.7652 33.2425C93.5815 33.5575 92.8858 33.715 91.6783 33.715H91.2846C90.3133 33.5575 89.8277 33.2294 89.8277 32.7306C89.8277 32.3631 89.5258 31.8513 88.9221 31.195C88.8433 31.0638 88.279 30.9981 87.229 30.9981C86.2315 30.9981 85.024 31.2606 83.6065 31.7856C82.609 32.8356 81.9527 33.6494 81.6377 34.2269C81.8215 38.7156 81.8871 41.5244 81.8346 42.6531C81.8346 42.8894 81.9921 43.0075 82.3071 43.0075H83.2521C83.6721 43.0338 83.8821 43.1125 83.8821 43.2438V43.2831L84.0396 43.795L83.9608 46L83.7246 46.315L81.874 46.5119H81.7165L80.929 46.7481C77.9102 46.6431 76.4008 46.525 76.4008 46.3937C75.8758 46.3937 75.6133 46.1575 75.6133 45.685C75.5608 45.2125 75.5346 44.7269 75.5346 44.2281C75.5346 43.7294 76.0465 43.4013 77.0702 43.2438C77.0702 43.0338 77.4246 42.9288 78.1333 42.9288L78.2515 42.8894V42.8106L78.0152 32.0219C78.0152 31.3656 77.8446 31.0375 77.5033 31.0375H77.2671C76.9521 31.0375 76.4271 31.1819 75.6921 31.4706L75.6133 31.3919V31.3131C75.6133 31.2606 75.7183 31.195 75.9283 31.1163V31.0375C75.6658 31.0375 75.5346 30.3025 75.5346 28.8325C75.4821 28.8325 75.4427 28.5963 75.4165 28.1238C76.4665 27.31 77.569 26.9031 78.724 26.9031H79.7083C80.1021 26.9031 80.7715 27.0344 81.7165 27.2969V27.415C81.4802 27.7825 81.3621 28.045 81.3621 28.2025V28.4781C83.4883 27.5331 86.4021 27.2575 90.1033 27.6513ZM79.7871 33.5969V33.7938C79.9183 34.0563 79.984 34.3319 79.984 34.6206C79.9577 34.7256 79.9183 35.2638 79.8658 36.235L79.9446 37.81H79.984C80.0627 37.81 80.1677 36.5894 80.299 34.1481C80.3515 34.1481 80.3777 33.8856 80.3777 33.3606C80.3515 33.1244 80.2858 33.0063 80.1808 33.0063H80.1021C79.8921 33.1375 79.7871 33.3344 79.7871 33.5969ZM77.4246 45.4881L76.9127 45.5275V45.6063C76.9127 45.7375 77.2933 45.8031 78.0546 45.8031H79.2358L79.5115 45.7638C79.5115 45.6325 78.8158 45.5406 77.4246 45.4881ZM84.2365 29.3444V29.4231C84.4727 29.4231 84.7877 29.0425 85.1815 28.2813V28.0844H85.1421C84.4596 28.2944 84.1577 28.7144 84.2365 29.3444ZM89.3158 30.6044H89.5127C89.644 30.5781 89.8933 30.2631 90.2608 29.6594V29.62C90.2608 29.5675 90.2083 29.5413 90.1033 29.5413C89.6571 29.7513 89.434 30.0269 89.434 30.3681C89.4077 30.3681 89.3683 30.4469 89.3158 30.6044ZM80.2596 31.51H80.1021L79.9052 32.3369C79.9052 32.4681 79.984 32.5994 80.1415 32.7306H80.1808C80.2596 32.7306 80.3252 32.5469 80.3777 32.1794L80.2596 31.51ZM85.7327 28.4781L85.9296 29.2656H86.2446V28.4388L86.1265 28.3206H86.0083C85.8246 28.3469 85.7327 28.3994 85.7327 28.4781ZM77.149 44.8581L77.0702 44.9369L77.1096 45.0156H79.2752V44.8975L77.9365 44.8581H77.149ZM76.4402 28.4388C76.6502 28.6488 76.8733 28.7538 77.1096 28.7538L77.149 28.675V28.3994L76.9915 28.2025C76.624 28.255 76.4402 28.3338 76.4402 28.4388ZM80.4171 45.1338L80.5352 45.2519H81.1258L81.2833 45.0944C81.2833 45.0419 81.2177 44.9894 81.0865 44.9369C80.6402 44.9894 80.4171 45.055 80.4171 45.1338ZM91.7571 29.5019H91.639V29.5806C91.849 29.7906 92.0327 29.8956 92.1902 29.8956H92.3083V29.8169C92.0983 29.6069 91.9146 29.5019 91.7571 29.5019ZM78.2515 27.6513H78.1333V27.8088L78.3696 28.0844H78.724V28.0056L78.2515 27.6513ZM77.0702 29.9744V30.0531H77.1883C77.4771 30.0531 77.6346 30.0006 77.6608 29.8956L77.5821 29.7775H77.5033C77.2671 29.7775 77.1227 29.8431 77.0702 29.9744ZM87.1502 28.1238L86.6777 28.1631V28.2025L86.7565 28.3206H87.1502C87.334 28.3206 87.439 28.2681 87.4652 28.1631L87.3865 28.1238H87.1502ZM80.929 40.8025L80.7715 40.9206V41.2356H80.929L81.0865 41.1175V40.8813L81.0077 40.8025H80.929ZM76.204 45.0944L76.0465 44.9369L75.9677 45.0944V45.2519L76.0465 45.37H76.204V45.0944ZM81.7165 30.2106L81.559 30.25V30.3681L81.7165 30.4863H81.8346L81.9527 30.3681V30.25L81.7165 30.2106ZM87.9377 28.0844V28.1631H88.2133L88.3708 28.045L88.2527 27.9269C88.0427 27.9794 87.9377 28.0319 87.9377 28.0844ZM90.5365 28.0844L90.4577 28.1631V28.2025L90.5365 28.3206H90.694L90.7727 28.2025V28.1631L90.694 28.0844H90.5365ZM80.9683 27.6906L80.7715 27.7694V27.9269H80.9683L81.0865 27.7694L80.9683 27.6906ZM80.8502 28.3994L80.6927 28.5175V28.5963L80.7715 28.675L80.9683 28.5175V28.3994H80.8502ZM90.4183 31.6675V31.7463H90.4971L90.6546 31.6281V31.51H90.6152C90.484 31.5888 90.4183 31.6413 90.4183 31.6675ZM89.0796 28.2025L88.9221 28.3206V28.36H89.119L89.1977 28.2813V28.2025H89.0796ZM80.929 41.6688H80.8502V41.8263H80.929V41.6688ZM99.8683 24.6588L104.751 24.5406C105.171 24.5406 106.05 24.7244 107.389 25.0919C108.911 26.5356 109.817 27.6644 110.106 28.4781C110.683 29.0819 111.143 30.2763 111.484 32.0613C111.904 32.4813 112.114 33.4131 112.114 34.8569L112.153 35.8413L111.996 39.7394C111.996 40.5269 112.481 41.4981 113.453 42.6531C114.345 43.5194 114.923 43.9525 115.185 43.9525V44.0313C115.185 44.3463 114.726 44.845 113.807 45.5275C113.125 46.21 112.691 46.5512 112.508 46.5512H112.468C112.048 46.4987 110.985 45.7244 109.279 44.2281C106.181 45.4356 104.62 46.0525 104.593 46.0787C103.57 46.3937 102.428 46.5512 101.168 46.5512H100.971C99.5533 46.315 98.3458 45.7638 97.3483 44.8975C97.1646 44.74 96.784 44.0838 96.2065 42.9288C95.734 42.3513 95.4977 41.6425 95.4977 40.8025V39.6606C95.4977 38.9256 95.6946 38.2431 96.0883 37.6131C96.4296 36.5369 97.0202 35.5131 97.8602 34.5419C98.2802 34.0431 98.7002 33.7281 99.1202 33.5969C100.485 32.8619 101.837 32.4944 103.176 32.4944L104.948 32.455H105.184C106.181 32.455 106.89 32.5994 107.31 32.8881H107.546C107.678 32.8881 107.743 32.8356 107.743 32.7306C107.455 31.4969 106.982 30.3156 106.326 29.1869C105.748 28.2156 104.672 27.73 103.097 27.73L101.483 27.4938C100.091 27.7825 99.3958 28.0713 99.3958 28.36C98.8446 29.0688 98.5165 29.9481 98.4115 30.9981C98.359 31.1294 97.8865 31.195 96.994 31.195L96.7577 31.2738C96.6527 31.2738 96.5215 31.4969 96.364 31.9431C95.629 31.8381 95.2615 31.6806 95.2615 31.4706C95.314 31.3131 95.4058 30.3681 95.5371 28.6356C95.9571 27.4281 96.9546 26.3125 98.5296 25.2888C99.2646 24.8688 99.7108 24.6588 99.8683 24.6588ZM104.278 25.3281L104.2 25.4463L104.318 25.6038H104.554L104.593 25.525L104.475 25.3281H104.278ZM107.271 25.6431H107.192V25.7219C107.402 25.9319 107.586 26.0369 107.743 26.0369H107.783V25.9581C107.573 25.7481 107.402 25.6431 107.271 25.6431ZM100.971 25.84V25.9581C100.997 26.0369 101.128 26.0763 101.365 26.0763C101.601 26.0763 101.929 25.9975 102.349 25.84V25.6825H102.191C101.614 25.6825 101.207 25.735 100.971 25.84ZM97.4271 27.1V27.1788H97.4665C97.7027 27.1788 98.0571 26.9294 98.5296 26.4306V26.3125H98.4902C98.2277 26.3125 97.8733 26.575 97.4271 27.1ZM102.9 26.8244L102.703 26.9819L102.821 27.1788H103.333L103.451 27.0606L103.215 26.8244H102.9ZM97.1121 30.0138L96.994 30.0925V30.6831H97.0333C97.1383 30.6569 97.1908 30.565 97.1908 30.4075V30.0925L97.1121 30.0138ZM111.405 33.1638H111.366V33.2425C111.418 33.4525 111.471 33.5575 111.523 33.5575L111.563 33.3606C111.51 33.2294 111.458 33.1638 111.405 33.1638ZM110.5 34.5419L110.381 34.6206V34.7388C110.486 35.1325 110.591 35.3294 110.696 35.3294H110.775C110.775 34.9881 110.696 34.7256 110.539 34.5419H110.5ZM98.9627 34.7781L98.5296 34.975V35.1719H98.6083C98.7921 35.1719 98.9233 35.0669 99.0021 34.8569V34.7781H98.9627ZM98.5296 38.5188C98.7133 40.0938 98.9365 40.8813 99.199 40.8813L99.5927 41.3931V41.4325L99.2383 41.3931V41.5113C99.7371 42.1938 100.761 42.8238 102.31 43.4013C102.493 43.5063 102.756 43.585 103.097 43.6375C103.57 43.6375 105.381 42.8631 108.531 41.3144C108.741 41.1831 108.846 41.0388 108.846 40.8813V40.6844C108.61 39.6081 108.413 38.3481 108.255 36.9044L108.176 36.865C108.176 36.5763 107.888 36.34 107.31 36.1563C105.368 35.605 104.042 35.3294 103.333 35.3294C101.338 35.7756 99.9733 36.445 99.2383 37.3375C98.7658 37.81 98.5296 38.2038 98.5296 38.5188ZM110.381 35.9594L110.263 35.8806V35.9988H110.381V35.9594ZM110.539 36.7075H110.303V36.865L110.421 36.9831L110.539 36.865V36.7075ZM109.279 37.6919L109.161 37.81L109.279 37.9675L109.436 37.9281V37.81L109.318 37.6919H109.279ZM110.696 37.81H110.578V37.8494C110.631 38.8469 110.736 39.3456 110.893 39.3456L110.972 39.2669V39.1881C110.972 38.6369 110.88 38.1775 110.696 37.81ZM109.161 39.07L109.121 39.1094V39.3456L109.24 39.5031H109.279L109.436 39.3456V39.1094L109.318 39.07H109.161ZM112.508 42.7713H112.39V43.0075C112.495 43.3488 112.613 43.5194 112.744 43.5194H112.862V43.4013C112.757 42.9813 112.639 42.7713 112.508 42.7713ZM98.0177 42.8894L97.939 42.9681V43.0075L98.0177 43.0863H98.2146V43.0075L98.0965 42.8894H98.0177ZM111.287 43.4013L111.169 43.5194C111.248 43.7031 111.353 43.8213 111.484 43.8738H111.523L111.681 43.7163V43.6375L111.484 43.4013H111.287ZM105.578 43.9525V44.0313H105.735C106.103 44.0313 106.588 43.8738 107.192 43.5588V43.5194H107.035C106.142 43.6244 105.656 43.7688 105.578 43.9525ZM112.153 44.0706L112.075 44.2281V44.3069L112.232 44.4644H112.39L112.508 44.3856V44.3069L112.311 44.0706H112.153ZM102.428 44.3856L102.31 44.5038C102.362 44.635 102.467 44.7006 102.625 44.7006C102.913 44.6481 103.058 44.5825 103.058 44.5038V44.4644L102.94 44.3856H102.428ZM98.1358 44.9369L98.0177 45.0944C98.1227 45.3306 98.779 45.6325 99.9865 46C100.38 46.1837 100.905 46.2756 101.561 46.2756V46.2362C101.561 46.1575 101.063 46.0131 100.065 45.8031C99.4877 45.6456 98.884 45.3569 98.254 44.9369H98.1358ZM121.485 18.2013L122.824 18.0044C123.743 18.0044 124.465 18.4769 124.99 19.4219L125.265 20.6819C125.213 21.1806 124.924 21.8369 124.399 22.6506C124.058 22.9919 123.533 23.1625 122.824 23.1625C121.17 23.1625 120.146 22.9131 119.753 22.4144C119.359 21.8894 119.175 21.1544 119.201 20.2094C119.096 20.2094 119.044 20.1831 119.044 20.1306V20.0519C119.831 18.8181 120.645 18.2013 121.485 18.2013ZM120.698 19.1856V19.225C121.59 19.12 122.036 19.0019 122.036 18.8706L121.84 18.7919C121.078 18.9231 120.698 19.0544 120.698 19.1856ZM121.367 20.3275H121.406L121.643 20.3669H121.721C122.01 20.3669 122.194 20.2619 122.273 20.0519L122.233 19.9731H121.761C121.551 19.9731 121.42 20.0913 121.367 20.3275ZM124.202 19.9731L124.084 20.17V20.3275H124.123L124.241 20.17V19.9731H124.202ZM123.257 21.2725V21.3906H123.415C123.598 21.3906 123.743 21.2988 123.848 21.115V20.9969H123.769C123.585 20.9969 123.415 21.0888 123.257 21.2725ZM122.391 21.9813L122.273 22.0994V22.1781H122.981L123.1 22.0994L122.981 21.9813H122.391ZM117.39 25.7219H117.508C117.718 25.9056 117.981 25.9975 118.296 25.9975L118.808 25.7613C122.378 25.7613 124.163 25.8663 124.163 26.0763L124.202 26.3519V27.0213C124.438 27.5463 124.556 28.045 124.556 28.5175V29.1475C124.241 33.4263 124.031 36.8913 123.926 39.5425C123.874 39.7 123.821 39.9756 123.769 40.3694C123.795 40.4744 123.913 40.5269 124.123 40.5269H124.241C125.659 40.5269 126.368 40.6975 126.368 41.0388L126.328 41.1175V41.3538C126.643 41.9838 126.801 42.9813 126.801 44.3463L126.958 45.9213L126.84 46L125.108 46.0787H121.17C118.23 46.0787 116.76 45.8425 116.76 45.37C116.76 45.0813 116.681 44.7925 116.524 44.5038C116.603 44.32 116.734 44.1756 116.918 44.0706H117.036C117.141 44.1756 117.259 44.2281 117.39 44.2281H117.469C118.23 44.2281 119.136 44.1625 120.186 44.0313V43.9525C117.928 43.795 116.8 43.6113 116.8 43.4013L116.76 43.0863V42.6531L116.681 41.6294C116.681 41.3669 117.666 41.2356 119.635 41.2356C119.897 41.2356 120.028 40.645 120.028 39.4638L120.501 29.1081H120.422C119.687 29.1081 119.32 29.0556 119.32 28.9506C119.32 28.9244 119.359 28.885 119.438 28.8325C117.863 28.8325 117.075 28.6488 117.075 28.2813C116.97 28.255 116.918 28.15 116.918 27.9663L117.115 27.4938C117.115 27.3888 117.036 27.2444 116.878 27.0606C117.088 26.8506 117.233 26.4306 117.311 25.8006L117.39 25.7219ZM118.02 26.5094V26.6669H118.217C118.9 26.6669 119.241 26.6144 119.241 26.5094L119.162 26.3519H119.044C118.361 26.3519 118.02 26.4044 118.02 26.5094ZM123.375 26.2338L123.257 26.3519L123.415 26.47H123.493V26.3519L123.375 26.2338ZM118.886 27.0606H118.178V27.1788C118.178 27.2838 118.361 27.3363 118.729 27.3363H119.162H119.28H120.58C120.973 27.3363 121.17 27.2706 121.17 27.1394V27.1C121.17 26.9688 120.409 26.9556 118.886 27.0606ZM122.391 27.1L122.036 27.0606V27.1394C122.22 27.1394 122.443 27.2706 122.706 27.5331H122.785C122.837 27.5331 122.863 27.4938 122.863 27.415H122.942C123.047 27.415 123.113 27.5331 123.139 27.7694H123.218L123.769 27.3756V27.1394L122.942 27.1H122.391ZM122.233 29.305L122.43 29.8956L122.155 30.6044C122.26 30.8406 122.351 30.9588 122.43 30.9588H122.47L122.548 30.7225V30.4863C122.548 29.5413 122.693 29.0688 122.981 29.0688L123.1 28.9113V28.7538L122.981 28.6356H122.745C122.404 28.6356 122.233 28.8588 122.233 29.305ZM121.013 33.0456L120.895 38.125C120.921 38.3088 120.96 38.4006 121.013 38.4006C121.091 38.4006 121.144 38.2825 121.17 38.0463L121.131 37.4556C121.262 37.3244 121.406 36.7994 121.564 35.8806V35.6444L121.485 35.0931C121.643 34.9619 121.721 34.87 121.721 34.8175C121.616 34.5288 121.564 34.24 121.564 33.9513V33.8725C121.669 33.8725 121.8 32.4025 121.958 29.4625C121.879 29.2525 121.8 29.1475 121.721 29.1475C121.328 29.1475 121.091 30.4469 121.013 33.0456ZM122.942 29.5806L122.785 29.62V29.8563C122.785 30.0138 122.85 30.1319 122.981 30.2106H123.1L123.218 30.0531V29.8563C123.165 29.725 123.073 29.6331 122.942 29.5806ZM122.745 35.9988H122.548C122.338 36.97 122.233 37.6919 122.233 38.1644H122.273C122.404 38.1644 122.575 37.6263 122.785 36.55V36.2744L122.745 35.9988ZM121.997 39.7V39.9756H122.076C122.207 39.9231 122.273 39.7656 122.273 39.5031V39.2275H122.155C122.102 39.2275 122.05 39.385 121.997 39.7ZM122.076 40.2906L121.958 40.4481V40.645H122.076L122.233 40.5269V40.4088L122.115 40.2906H122.076ZM125.226 41.2356L125.108 41.275C125.265 41.4063 125.554 41.485 125.974 41.5113V41.3931C125.974 41.2881 125.803 41.2356 125.462 41.2356H125.226ZM125.383 42.8894L124.911 43.0075C124.963 43.3225 125.2 43.48 125.62 43.48H125.738V43.3619L125.659 43.2438C125.659 43.2175 125.764 43.1388 125.974 43.0075V42.8106C125.974 42.6269 125.921 42.5219 125.816 42.4956H125.659C125.58 42.5219 125.488 42.6531 125.383 42.8894ZM117.863 42.535L117.587 42.6138V42.6531C117.797 42.8631 118.611 42.9813 120.028 43.0075H120.304C120.514 43.0075 120.645 42.9419 120.698 42.8106V42.7319C119.595 42.6006 118.65 42.535 117.863 42.535ZM121.564 43.0075L121.721 43.2044C121.958 43.2044 122.076 43.0731 122.076 42.8106H121.879C121.721 42.8106 121.616 42.8763 121.564 43.0075ZM125.265 43.795L125.147 43.9525V44.0313H125.226L125.344 43.8738V43.795H125.265ZM122.233 44.0313L121.721 44.0706H121.17V44.2281L121.721 44.2675L122.863 44.1888V44.0706H122.706L122.233 44.0313ZM126.25 45.37L126.092 45.4881V45.6063H126.328L126.368 45.4881L126.328 45.37H126.25ZM128.061 26.155L128.14 26.0763C128.743 26.1813 129.373 26.2338 130.03 26.2338H133.258L133.376 26.3519C133.219 26.8244 133.14 27.1919 133.14 27.4544V28.1238C133.245 28.8588 133.455 29.2263 133.77 29.2263C133.928 28.9375 134.453 28.6619 135.345 28.3994C137.471 27.4806 139.204 27.0213 140.543 27.0213C141.435 27.0213 142.393 27.415 143.417 28.2025C144.178 28.4913 144.913 29.1081 145.622 30.0531C146.698 31.7594 147.236 33.7675 147.236 36.0775V36.3925L146.961 39.2275L147.236 41.275L146.843 43.1256V43.2044V43.5194L148.339 43.5981H149.008C149.455 43.5981 149.717 43.6375 149.796 43.7163C149.691 45.6325 149.494 46.5906 149.205 46.5906C148.68 46.9056 148.116 47.0631 147.512 47.0631H146.685C145.425 47.0631 144.1 47.2337 142.708 47.575C141.79 47.4437 141.33 46.9844 141.33 46.1969L141.291 44.7794C141.291 43.9131 141.514 43.2831 141.96 42.8894C142.196 41.6031 142.472 40.435 142.787 39.385L143.023 35.8806C143.102 35.8806 143.141 35.5919 143.141 35.0144C143.141 34.3056 142.577 33.295 141.448 31.9825C140.582 31.615 140.083 31.4313 139.952 31.4313C138.43 31.4313 137.065 32.0744 135.857 33.3606C135.752 33.3606 135.109 34.0038 133.928 35.29C133.56 35.5788 133.376 36.4581 133.376 37.9281C133.429 40.5794 133.521 41.905 133.652 41.905C134.702 42.0888 135.227 42.2856 135.227 42.4956V42.6531L134.361 42.6138L133.731 42.6531V42.8106C133.731 42.9156 134.23 43.0469 135.227 43.2044C135.411 43.3881 135.503 43.69 135.503 44.11V44.1888C135.503 44.8188 135.371 45.4881 135.109 46.1969L130.541 46.2362C130.095 46.2362 129.767 46.0131 129.557 45.5669C129.452 45.0681 129.334 44.0969 129.203 42.6531C129.203 42.5219 129.596 42.3775 130.384 42.22L130.581 41.9444V41.905C130.581 41.7475 130.476 41.5244 130.266 41.2356V40.015V37.7706L130.423 34.1481C130.423 31.6806 130.318 30.4469 130.108 30.4469H129.911L128.061 30.6831C127.877 30.6831 127.628 30.5256 127.313 30.2106V30.0531C127.444 29.8431 127.51 29.62 127.51 29.3838L127.431 27.9269L128.061 26.155ZM131.486 26.8638L128.258 27.3756V27.4544C128.258 27.5331 128.455 27.5856 128.848 27.6119C130.555 27.6119 131.408 27.4938 131.408 27.2575L131.565 27.0213V26.9425H131.486V26.8638ZM139.322 27.6119V27.6513C139.506 27.6513 139.821 27.8088 140.267 28.1238L140.7 28.2419L141.96 28.2025L142 28.1238V28.0844C141.973 27.9269 141.829 27.8481 141.566 27.8481H141.409L141.015 27.9269C140.438 27.5856 140.018 27.415 139.755 27.415C139.519 27.415 139.375 27.4806 139.322 27.6119ZM136.645 28.3206V28.36L136.723 28.4781C137.957 28.1631 138.574 27.9269 138.574 27.7694H138.495C137.918 27.7694 137.301 27.9531 136.645 28.3206ZM129.045 28.36L129.163 28.4781H129.242C129.583 28.4519 129.754 28.3731 129.754 28.2419L129.557 28.2025C129.216 28.2025 129.045 28.255 129.045 28.36ZM129.4 29.1475V29.2263L130.148 29.1869H130.266C130.528 29.1869 130.686 29.2525 130.738 29.3838V29.5019C130.607 29.6331 130.541 29.7644 130.541 29.8956C130.673 30.0006 130.83 30.0531 131.014 30.0531C131.093 30.0531 131.132 30.0006 131.132 29.8956L131.171 28.5963L131.132 28.4781H131.014C130.856 28.5831 130.331 28.7931 129.439 29.1081L129.4 29.1475ZM135.936 28.7144L135.975 28.7538V28.7931C136.211 28.7144 136.33 28.6488 136.33 28.5963V28.5175H136.251C136.041 28.57 135.936 28.6356 135.936 28.7144ZM127.982 28.7538V28.7931C127.982 28.8719 128.048 28.9375 128.179 28.99C128.389 28.99 128.625 28.8719 128.888 28.6356V28.5963H128.258C128.074 28.6225 127.982 28.675 127.982 28.7538ZM141.566 29.3838C141.566 29.4888 141.803 29.5675 142.275 29.62C142.38 29.5413 142.433 29.4363 142.433 29.305C142.433 29.1738 142.223 29.0688 141.803 28.99C141.645 29.095 141.566 29.2263 141.566 29.3838ZM133.613 29.6988V29.8563C133.98 29.8563 134.374 29.62 134.794 29.1475V29.1081L134.755 29.0688H134.715C134.4 29.0688 134.033 29.2788 133.613 29.6988ZM143.063 29.1475L142.945 29.305C142.997 29.4363 143.102 29.5019 143.26 29.5019H143.456L143.653 29.3444V29.305C143.627 29.2 143.496 29.1475 143.26 29.1475H143.063ZM138.692 29.5413V29.62H138.889C139.283 29.5675 139.48 29.4888 139.48 29.3838V29.305H139.204C138.863 29.3313 138.692 29.41 138.692 29.5413ZM132.235 29.3444H132.038L131.959 29.5806V30.2894C131.959 30.6044 131.906 30.8144 131.801 30.9194V31.1163L131.959 31.6675V31.9825C131.959 32.1925 132.025 32.3369 132.156 32.4156C132.182 32.4156 132.261 32.1138 132.392 31.51C132.76 31.2213 132.943 30.9981 132.943 30.8406C132.943 30.7094 132.799 30.4206 132.51 29.9744C132.431 29.5544 132.34 29.3444 132.235 29.3444ZM128.297 29.9744V30.0531H128.691L128.848 29.8956V29.8563L128.651 29.7775C128.415 29.8563 128.297 29.9219 128.297 29.9744ZM142.393 30.0925L142.157 29.9744L142.078 30.0531V30.0925L142.275 30.2106H142.315L142.393 30.0925ZM139.361 30.3681L139.44 30.4469H139.48C140.057 30.4469 140.346 30.3944 140.346 30.2894L140.031 30.2106C139.585 30.2631 139.361 30.3156 139.361 30.3681ZM133.652 31.9038V32.0219C134.335 31.9431 135.28 31.3788 136.487 30.3288V30.2894H136.251C136.146 30.2894 135.831 30.4731 135.306 30.8406C134.203 31.1819 133.652 31.5363 133.652 31.9038ZM143.063 30.3681H143.023V30.4863C143.023 30.565 143.194 30.9325 143.535 31.5888C143.535 31.7988 143.588 31.9038 143.693 31.9038L143.85 31.7463V31.5888C143.85 31.1688 143.588 30.7619 143.063 30.3681ZM130.817 30.8406L130.896 30.9588H130.975L131.093 30.4469H130.975C130.896 30.4469 130.843 30.5781 130.817 30.8406ZM140.74 31.1163V31.2344H141.724L141.881 31.1163V30.9588L141.685 30.8406H141.488C140.989 30.9194 140.74 31.0113 140.74 31.1163ZM136.841 31.7463C137.419 31.6413 137.708 31.4969 137.708 31.3131L137.59 31.2344H137.471C137.078 31.2344 136.868 31.405 136.841 31.7463ZM135.581 32.2188V32.2975H135.7C136.12 31.9563 136.33 31.6675 136.33 31.4313H136.251V31.3525C136.041 31.3525 135.818 31.6413 135.581 32.2188ZM132.55 31.825L132.628 32.0613C132.628 32.2713 132.51 32.4813 132.274 32.6913C132.405 32.8225 132.471 32.9538 132.471 33.085C132.471 34.3975 132.563 35.0538 132.746 35.0538H132.786C132.996 34.5813 133.101 33.9644 133.101 33.2031C133.075 32.2319 132.956 31.72 132.746 31.6675H132.668C132.589 31.6675 132.55 31.72 132.55 31.825ZM143.653 32.3369V32.455C143.968 33.6363 144.165 34.2531 144.244 34.3056L144.323 34.03V33.6756C144.139 32.7831 143.916 32.3369 143.653 32.3369ZM145.425 32.4156H145.386C145.438 33.8069 145.57 34.5025 145.78 34.5025H145.858C145.727 33.1113 145.583 32.4156 145.425 32.4156ZM135.109 32.4944L134.873 32.8094V32.8881L134.912 32.9669H135.109L135.227 32.4944H135.109ZM134.006 32.8881L133.928 32.9669L134.006 33.085H134.164V32.9669L134.085 32.8881H134.006ZM145.15 37.5344V37.5738L145.268 38.0463H145.465C145.438 37.705 145.333 37.5344 145.15 37.5344ZM143.653 40.3694L143.693 40.4088H143.732C143.811 40.4088 143.85 40.2775 143.85 40.015V39.5425C143.745 39.5425 143.68 39.8181 143.653 40.3694ZM143.417 40.9994C143.575 41.1831 143.653 41.4325 143.653 41.7475H143.732L143.85 41.275V40.6056C143.561 40.6056 143.417 40.7369 143.417 40.9994ZM145.15 40.645H145.071V40.8419H145.15V40.645ZM146.055 40.8419L145.976 41.6294V42.6138H146.016C146.357 42.1938 146.528 41.8 146.528 41.4325V41.3931C146.528 41.0256 146.37 40.8419 146.055 40.8419ZM145.031 42.6531V42.7319H145.071L145.228 42.2988V42.22H145.15C145.071 42.22 145.031 42.3644 145.031 42.6531ZM129.833 42.8106L129.754 42.9681V43.0075C129.806 43.48 129.977 43.7163 130.266 43.7163H130.502L130.62 43.5981V43.5194C130.384 43.2306 130.266 42.9944 130.266 42.8106H129.833ZM145.15 43.3619H144.992V43.5194L145.15 43.6769L145.268 43.5981V43.5194L145.15 43.3619ZM147.276 44.2675V44.3856C148.457 44.3856 149.048 44.2938 149.048 44.11V44.0313H148.496C147.683 44.0575 147.276 44.1363 147.276 44.2675ZM131.486 44.6613C131.486 44.7925 131.828 44.8581 132.51 44.8581C133.823 44.8581 134.479 44.7925 134.479 44.6613C134.479 44.5038 134.033 44.425 133.14 44.425C132.143 44.425 131.591 44.5038 131.486 44.6613ZM142.157 44.7794H142.039V45.0156L142.157 45.1338H142.275L142.315 45.0156V44.9763L142.157 44.7794ZM147.63 45.0944V45.2125C147.683 45.3438 147.801 45.4094 147.985 45.4094C148.405 45.4094 148.654 45.3175 148.733 45.1338V45.0156C148.68 44.8581 148.536 44.7794 148.3 44.7794H148.103C147.84 44.7794 147.683 44.8844 147.63 45.0944ZM143.023 45.8031C143.102 46.0131 143.233 46.1181 143.417 46.1181C144.835 46.0919 145.543 46 145.543 45.8425C145.36 45.6063 145.031 45.4881 144.559 45.4881C143.535 45.5144 143.023 45.6194 143.023 45.8031ZM142.039 46.5512L141.881 46.7087V46.7875C141.881 46.9712 142.236 47.0631 142.945 47.0631H143.141L143.456 46.9844V46.945C143.194 46.6825 142.774 46.5512 142.196 46.5512H142.039ZM151.568 17.4925L151.607 17.5319V17.5713L151.489 17.6894C151.515 17.7944 151.62 17.8469 151.804 17.8469H151.883L151.961 17.7288L151.804 17.5319L151.883 17.4925H153.418C154.337 17.4925 154.796 17.7681 154.796 18.3194L154.915 18.4769H155.033L155.151 18.3981V18.3194L155.033 18.0044L155.072 17.9256H155.151C155.807 17.9256 156.135 18.6344 156.135 20.0519C156.135 23.2281 156.319 25.5775 156.686 27.1H156.844L159.285 26.9819C162.278 27.1656 163.774 27.4281 163.774 27.7694C163.879 27.7694 164.391 28.1763 165.31 28.99C166.806 30.25 167.764 31.4838 168.184 32.6913C168.656 33.2163 168.893 34.6469 168.893 36.9831L168.932 38.1644C168.145 39.7919 167.751 40.7631 167.751 41.0781C167.751 42.0231 166.701 43.27 164.601 44.8188C164.312 45.475 162.711 45.8163 159.797 45.8425C158.511 45.6063 157.618 45.4881 157.12 45.4881H156.214C155.768 45.4881 155.545 45.6719 155.545 46.0394L154.718 47.1025C154.271 47.2337 153.917 47.2994 153.655 47.2994C153.34 47.2994 152.696 47.05 151.725 46.5512V46.4331C151.909 46.2231 152.001 46.0131 152.001 45.8031V45.6456L151.883 44.9369L151.961 44.3856V43.6769L151.804 42.8894C152.119 41.1831 152.276 40.0281 152.276 39.4244L152.395 39.0306L152.316 38.5188L152.67 35.7231V35.5656C152.67 34.8831 152.5 32.7569 152.158 29.1869V29.1081L152.08 29.0688L152.158 28.7931V28.6356C152.263 27.0344 152.316 25.5644 152.316 24.2256V21.2725L152.276 21.0363H152.198C151.2 21.5613 150.478 21.8238 150.032 21.8238C149.717 21.8238 149.52 21.115 149.441 19.6975C149.441 19.5925 149.52 19.4481 149.678 19.2644V19.1463H149.599L149.481 19.1856L149.441 19.1463C149.441 18.1488 149.546 17.65 149.756 17.65C150.045 17.545 150.649 17.4925 151.568 17.4925ZM154.836 17.5319H155.033V17.65L154.836 17.6894L154.796 17.65V17.5713L154.836 17.5319ZM152.67 18.1619H152.552V18.2013H152.67V18.1619ZM153.418 18.1619L153.3 18.28V18.3194H153.576V18.1619H153.418ZM150.19 18.28H149.756V18.3194C149.756 18.3981 150.032 18.5031 150.583 18.6344C151.135 18.6081 151.41 18.5425 151.41 18.4375V18.3981C151.095 18.3194 150.688 18.28 150.19 18.28ZM153.93 18.7919L153.733 18.9888V19.6188L153.851 19.6975C154.061 19.5663 154.166 19.3563 154.166 19.0675C154.166 18.91 154.127 18.8181 154.048 18.7919H153.93ZM152.434 19.54L152.591 19.6581H153.025L153.182 19.4613V19.2644L153.025 19.1463C152.631 19.1463 152.434 19.2775 152.434 19.54ZM150.426 19.1856H150.347L150.308 19.4219V19.7763C150.308 19.8813 150.439 19.9469 150.701 19.9731C151.069 19.9731 151.279 19.855 151.331 19.6188C150.964 19.33 150.662 19.1856 150.426 19.1856ZM151.883 19.3038H151.568V19.3825L151.686 19.54H152.001V19.4219L151.883 19.3038ZM153.773 22.4931C153.851 23.0706 153.956 23.3594 154.088 23.3594H154.127V23.2806C154.075 22.6769 153.983 22.375 153.851 22.375C153.799 22.375 153.773 22.4144 153.773 22.4931ZM161.726 27.7694H161.411V27.8481C161.49 28.0056 161.648 28.0844 161.884 28.0844H161.923V27.9663L161.726 27.7694ZM158.537 28.2025L158.655 28.3206H158.891L159.246 28.2025V28.0056L159.049 27.9663C158.839 27.9663 158.668 28.045 158.537 28.2025ZM156.765 29.3444V29.5019H156.844C157.5 29.3969 157.828 29.2919 157.828 29.1869V29.0688H157.75C157.461 29.0688 157.133 29.1606 156.765 29.3444ZM162.947 29.1869H162.79C162.79 29.4494 163.17 29.6856 163.931 29.8956C164.456 30.6044 164.837 30.9588 165.073 30.9588V30.9194C164.916 30.3681 164.68 29.9875 164.365 29.7775C163.656 29.3838 163.183 29.1869 162.947 29.1869ZM155.623 37.0225C155.623 37.6525 155.65 38.2563 155.702 38.8338L155.663 39.8181V41.59C155.663 41.9313 156.28 42.2856 157.513 42.6531C157.802 42.7581 158.301 42.8106 159.01 42.8106C160.322 42.8106 161.963 42.3906 163.931 41.5506C164.561 41.0519 165.27 40.0019 166.058 38.4006L166.294 37.4163C166.294 36.0775 165.887 34.6731 165.073 33.2031C164.89 32.3894 164.456 31.6675 163.774 31.0375L162.002 29.7775C160.165 29.7775 158.261 30.1713 156.293 30.9588C156.083 30.9588 155.938 31.8906 155.86 33.7544C155.702 34.6731 155.623 35.7625 155.623 37.0225ZM167.83 32.9275H167.751V33.085C167.751 33.2688 167.843 33.3606 168.026 33.3606H168.066V33.3213C168.066 33.1375 167.987 33.0063 167.83 32.9275ZM166.491 33.9513H166.373V34.0694L166.491 34.1481H166.57V34.0694L166.491 33.9513ZM166.766 42.22V42.2594C167.134 42.2594 167.396 41.6688 167.554 40.4875H167.278C167.173 40.4875 167.029 40.9731 166.845 41.9444C166.793 41.9444 166.766 42.0363 166.766 42.22ZM165.782 41.5506V41.59L165.9 41.6688C166.189 41.5375 166.333 41.3931 166.333 41.2356L166.215 41.1175H166.097C165.887 41.2488 165.782 41.3931 165.782 41.5506ZM162.986 42.4956V42.6138L163.105 42.6531H163.183C163.525 42.6531 163.695 42.5875 163.695 42.4563L163.577 42.2988H163.341C163.157 42.2988 163.039 42.3644 162.986 42.4956ZM155.978 42.4563V42.4956C156.004 42.6006 156.096 42.6531 156.253 42.6531V42.6138C156.227 42.5088 156.135 42.4563 155.978 42.4563ZM154.521 42.4956L154.442 42.6138V42.85L154.521 42.9681H154.56L154.678 42.85V42.8106C154.678 42.6269 154.626 42.5219 154.521 42.4956ZM164.207 43.5981V43.7163C165.047 43.48 165.506 43.2831 165.585 43.1256V43.0469C165.349 43.0469 164.89 43.2306 164.207 43.5981ZM152.276 43.5194H152.158V43.6769L152.276 43.7163H152.316V43.6769L152.276 43.5194ZM162.317 43.795L162.238 43.8738V43.9919H162.593L162.711 43.8344V43.795H162.317ZM159.403 44.4644L159.482 44.5038H159.876C160.506 44.4513 160.86 44.3594 160.939 44.2281V44.11H160.821C160.165 44.11 159.692 44.2281 159.403 44.4644ZM156.175 44.3463H155.899V44.425C155.899 44.53 156.122 44.6088 156.568 44.6613H156.647V44.5038C156.647 44.4513 156.49 44.3988 156.175 44.3463ZM154.048 45.055L154.166 45.0944C154.403 44.9631 154.521 44.845 154.521 44.74H154.324C154.14 44.74 154.048 44.845 154.048 45.055ZM153.261 44.9763L153.064 45.055V45.1731L153.261 45.3306H153.418V45.1731L153.261 44.9763ZM162.711 45.37H162.593V45.4881H162.711V45.37ZM173.381 26.47L176.059 27.3756C176.085 27.7694 176.243 28.1894 176.531 28.6356L176.61 29.0688C176.374 30.7488 176.308 34.24 176.413 39.5425C176.413 40.3038 176.728 40.8025 177.358 41.0388L177.634 41.6688C177.634 41.8263 178.5 41.9706 180.233 42.1019H180.39C180.941 42.1019 181.624 41.5113 182.438 40.33C183.068 39.7 183.488 39.2013 183.698 38.8338H183.895V38.5975L183.816 38.4006C183.973 38.1644 184.091 37.81 184.17 37.3375H184.21V36.9831L184.918 29.5019V28.7931L184.84 28.3994V28.36C185.128 28.15 185.273 27.8219 185.273 27.3756C185.273 27.0869 185.365 26.9294 185.548 26.9031L186.454 27.3756H187.32C188.37 27.3756 189.118 27.5988 189.565 28.045V28.2025C189.276 28.2025 189.131 28.255 189.131 28.36L189.525 29.2656H189.643C189.696 28.8719 189.748 28.675 189.801 28.675C189.906 28.8063 189.971 29.0294 189.998 29.3444L189.565 34.2269L189.643 34.3056V34.345C189.46 34.8963 189.276 36.4844 189.092 39.1094V40.2513C189.092 41.9575 189.171 42.8106 189.328 42.8106H189.486C189.958 42.8106 190.72 42.7056 191.77 42.4956C191.875 42.5219 192.111 42.6794 192.478 42.9681C192.373 45.3306 192.216 46.5119 192.006 46.5119L191.573 46.1575L190.391 46.2362L186.021 46.1575C185.785 46.1575 185.548 45.6194 185.312 44.5431C185.155 44.4119 185.076 44.2544 185.076 44.0706L185.155 43.7163H185.036C184.826 43.7163 184.052 44.0706 182.713 44.7794C182.635 44.9631 181.716 45.3438 179.957 45.9213C179.563 46.1312 179.038 46.3412 178.382 46.5512C177.988 46.315 177.358 46.0787 176.492 45.8425C174.838 44.215 173.828 42.7844 173.46 41.5506C172.778 40.5794 172.436 38.5056 172.436 35.3294L172.87 30.7225V30.6044C172.87 30.5519 171.977 30.3813 170.192 30.0925C170.035 29.8563 169.956 29.2 169.956 28.1238C169.956 27.415 170.074 27.0606 170.31 27.0606C170.31 26.7719 171.334 26.575 173.381 26.47ZM172.712 26.9425L172.555 27.0213V27.1H172.83V27.0213L172.712 26.9425ZM173.696 27.2575L173.5 27.3363V27.3756C173.5 27.4019 173.696 27.52 174.09 27.73C174.09 28.0713 174.116 28.2419 174.169 28.2419H174.405C175.035 28.2419 175.416 28.1369 175.547 27.9269V27.8481C175.547 27.6644 175.153 27.52 174.366 27.415C174.366 27.3625 174.208 27.31 173.893 27.2575H173.696ZM171.019 28.36H170.507V28.4781L170.586 28.5175H170.704L171.019 28.4781V28.36ZM171.019 28.7538H170.704V28.8325C170.73 28.99 170.875 29.0688 171.137 29.0688L171.176 28.99V28.9113L171.019 28.7538ZM185.666 27.8088H185.588C185.588 28.0713 185.798 28.2025 186.218 28.2025H186.454L186.572 28.1238V28.0844C186.572 27.9531 186.27 27.8613 185.666 27.8088ZM172.043 29.2263C172.043 29.3838 172.463 29.6069 173.303 29.8956H173.696C173.801 29.8956 173.854 29.8038 173.854 29.62C173.565 29.3313 173.211 29.1475 172.791 29.0688H172.476C172.213 29.0688 172.069 29.1213 172.043 29.2263ZM171.531 29.1081L171.334 29.1869V29.305L171.373 29.3444V29.3838C171.61 29.3313 171.728 29.2656 171.728 29.1869V29.1081H171.531ZM174.996 29.5413V30.2894L175.114 30.3681C175.271 30.2894 175.35 30.1319 175.35 29.8956V29.4625C175.35 29.305 175.311 29.2 175.232 29.1475H175.153C175.048 29.1738 174.996 29.305 174.996 29.5413ZM170.665 29.3838L170.507 29.5413L170.586 29.62H170.901L171.019 29.5413L170.861 29.3838H170.665ZM186.021 29.0688L185.903 29.1869V29.2656C185.903 29.3706 185.995 29.4231 186.178 29.4231H186.218C186.401 29.4231 186.506 29.3706 186.533 29.2656V29.1869C186.506 29.1081 186.375 29.0688 186.139 29.0688H186.021ZM173.263 31.3131V31.6281L173.854 31.4313V30.6044L173.775 30.4863C173.644 30.4863 173.473 30.7619 173.263 31.3131ZM186.572 33.4V33.5575H186.611C186.874 33.5575 187.005 33.2556 187.005 32.6519C186.979 32.3894 186.94 32.2581 186.887 32.2581C186.808 32.2581 186.703 32.6388 186.572 33.4ZM188.147 34.6206H188.029L187.95 34.7781C188.003 34.9094 188.055 34.975 188.108 34.975H188.147V34.6206ZM173.972 35.7231L173.854 35.6838L173.696 35.8413V35.92L173.854 35.9988L173.972 35.8806V35.7231ZM186.021 37.1406L186.218 37.3375C186.349 37.285 186.428 37.0225 186.454 36.55L186.415 36.4713H186.336C186.126 36.6288 186.021 36.8519 186.021 37.1406ZM174.76 37.0619V37.3375C174.76 37.6788 174.93 37.9413 175.271 38.125H175.39C175.39 37.1538 175.311 36.6681 175.153 36.6681H174.996C174.838 36.7469 174.76 36.8781 174.76 37.0619ZM185.942 37.5738L185.824 37.6919V38.0463L185.942 38.2038C186.1 38.125 186.218 38.0069 186.296 37.8494V37.6919L186.178 37.5738H185.942ZM173.421 38.0069L173.303 38.125V38.2825C173.303 39.3063 173.854 40.9075 174.956 43.0863C175.166 43.2175 175.311 43.2831 175.39 43.2831V43.0863L174.248 39.8969C173.906 38.6894 173.644 38.0594 173.46 38.0069H173.421ZM186.887 39.1094L186.73 39.2669V39.3063L186.887 39.4244L187.005 39.3063L186.966 39.1094H186.887ZM182.556 41.0388L182.595 41.1175H182.635C183.265 40.2775 183.58 39.7919 183.58 39.6606V39.5819H183.461C183.251 39.8444 182.95 40.33 182.556 41.0388ZM175.508 39.6606V39.7C175.586 39.8575 175.691 39.9363 175.823 39.9363V39.8969C175.823 39.7394 175.718 39.6606 175.508 39.6606ZM186.808 39.7394H186.73V39.9756C186.73 40.3956 186.795 40.9338 186.926 41.59H187.045C187.15 41.1963 187.202 40.8156 187.202 40.4481V40.1725C187.202 39.8838 187.071 39.7394 186.808 39.7394ZM184.682 40.1331L184.525 39.9363C184.367 40.1463 184.288 40.3038 184.288 40.4088L184.485 40.5269H184.525L184.682 40.4088V40.1331ZM186.021 40.5269H185.942V40.8025H186.021L186.139 40.6844V40.5663L186.021 40.5269ZM176.65 41.6688H176.61V41.7869L176.689 41.905H176.728V41.7869L176.65 41.6688ZM188.501 41.7081L188.108 42.2988V42.4169H188.501L188.659 42.2988V42.1019C188.659 41.8656 188.606 41.7344 188.501 41.7081ZM184.84 42.3775V42.4169H184.918L185.194 42.1806V42.0231C184.958 42.0231 184.84 42.1413 184.84 42.3775ZM186.021 42.2988L185.903 42.4169V42.8894C185.903 44.7269 185.995 45.6456 186.178 45.6456H186.296C186.48 45.6194 186.572 45.5406 186.572 45.4094C186.362 45.0419 186.244 44.0838 186.218 42.535L186.021 42.2988ZM176.374 42.4956H176.256V42.6531C176.282 42.7581 176.374 42.8106 176.531 42.8106V42.6531L176.374 42.4956ZM177.358 42.7713H177.24V42.8106C177.24 43.0994 177.7 43.5194 178.618 44.0706C179.668 43.6506 180.193 43.3881 180.193 43.2831V43.2438C179.511 43.2438 178.566 43.0863 177.358 42.7713ZM179.248 44.2281V44.3069H179.721C180.745 44.0706 181.427 43.7163 181.768 43.2438V43.0863H181.571C181.414 43.0863 180.64 43.4669 179.248 44.2281ZM190.864 43.4013L189.643 43.5588V43.7163L189.88 43.7556H190.037C190.615 43.7294 190.903 43.6375 190.903 43.48V43.4013H190.864ZM190.864 44.0706H190.706V44.3069H190.864L190.982 44.2281V44.1494C190.982 44.0969 190.943 44.0706 190.864 44.0706ZM187.675 44.7006L187.556 44.7794V44.8975C187.609 45.0288 187.766 45.0944 188.029 45.0944H188.423L188.541 45.0156V44.9369C188.541 44.8056 188.37 44.7269 188.029 44.7006H187.675ZM178.5 45.0944H178.185L176.61 44.9369H176.531L176.374 45.0944V45.1338C176.374 45.37 177.109 45.6325 178.579 45.9213C179.025 45.9213 179.905 45.5931 181.217 44.9369L181.256 44.8975V44.7794H180.981C180.193 44.9894 179.366 45.0944 178.5 45.0944ZM208.74 16.3113L210.473 16.2719C211.549 16.4819 212.087 16.6394 212.087 16.7444C212.14 16.7444 212.192 17.125 212.245 17.8863C212.533 18.2275 212.678 18.4506 212.678 18.5556C212.546 19.8156 212.428 22.3881 212.323 26.2731C212.271 26.2731 212.245 26.4044 212.245 26.6669C212.035 26.7981 211.93 26.9425 211.93 27.1V27.73C211.93 28.255 211.798 28.8588 211.536 29.5413L211.496 30.0925C211.496 30.1975 211.641 30.2763 211.93 30.3288V30.6044C211.536 33.9381 211.339 36.1169 211.339 37.1406C211.339 38.3481 211.26 38.9519 211.103 38.9519V39.0306C211.26 39.0306 211.352 39.2013 211.378 39.5425L211.339 39.8181V39.9756C211.339 40.4744 211.181 41.6819 210.866 43.5981V44.5038C212.179 44.7925 212.835 45.1731 212.835 45.6456L212.638 45.8425V46.1969L212.835 46.5119C212.625 47.0631 211.877 47.3387 210.591 47.3387H210.355L210.158 47.0237H209.725L208.661 47.26L207.165 47.2206C207.06 47.2206 206.942 46.5512 206.811 45.2125L206.89 43.9525C206.548 43.9525 206.01 44.2413 205.275 44.8188C203.096 46.0262 201.18 46.6825 199.526 46.7875C198.004 46.3937 196.639 45.6325 195.431 44.5038C195.038 44.11 194.631 43.4931 194.211 42.6531C193.738 41.9969 193.502 41.6031 193.502 41.4719V41.3144H193.62C193.804 41.4456 194.145 41.8919 194.644 42.6531L194.841 42.6925L194.88 42.6531V42.1413C194.88 41.6163 194.605 40.9863 194.053 40.2513H193.856C193.699 40.2513 193.607 40.4875 193.581 40.96H193.463L193.384 40.7631C193.436 39.7394 193.476 39.07 193.502 38.755H193.738L193.778 39.1094H193.856C193.988 39.0569 194.053 38.9256 194.053 38.7156V37.9675L193.975 37.8494C193.896 37.8494 193.856 37.9544 193.856 38.1644L193.62 38.4006C193.568 38.4006 193.528 38.3088 193.502 38.125C193.502 36.1563 194.145 34.0563 195.431 31.825C196.035 30.775 196.639 29.935 197.243 29.305C198.083 28.5438 199.408 28.1631 201.22 28.1631H201.574C204.356 28.1631 206.627 28.885 208.386 30.3288L208.661 30.4863H208.78C209.016 29.3313 209.252 26.4044 209.488 21.7056C209.62 21.4956 209.725 21.3906 209.803 21.3906C208.963 20.8394 208.386 20.5638 208.071 20.5638C207.835 20.5638 207.69 19.6581 207.638 17.8469C207.69 17.7944 207.9 17.755 208.268 17.7288V17.5713C208.241 17.4663 208.136 17.4138 207.953 17.4138C207.821 17.335 207.756 17.2431 207.756 17.1381C207.756 16.8756 208.058 16.7444 208.661 16.7444V16.5869L208.504 16.4294V16.3506L208.74 16.3113ZM208.78 18.0044L208.74 18.1225V18.1619H209.213V18.1225L209.095 18.0044H208.78ZM210.985 18.3981L210.906 18.5163V18.5556H211.496V18.4375L211.221 18.3981H210.985ZM209.764 19.1463L209.843 19.2644C210.473 19.2381 210.788 19.1594 210.788 19.0281L210.63 18.91H210.158C209.974 18.91 209.843 18.9888 209.764 19.1463ZM208.74 18.9888L208.661 19.1069V19.1856L208.937 19.2644C209.095 19.2644 209.186 19.2119 209.213 19.1069L209.095 18.9888H208.74ZM199.999 29.1869L199.881 29.3444V29.5413L199.999 29.62H200.196L200.393 29.4625V29.3444L200.235 29.1869H199.999ZM202.322 29.62L202.401 29.7775H204.133V29.62C203.976 29.4625 203.543 29.3706 202.834 29.3444H202.44C202.361 29.3706 202.322 29.4625 202.322 29.62ZM211.733 29.5413V29.3444H211.93V29.5413H211.733ZM197.321 30.4075V30.565L197.4 30.6044H197.558C198.476 30.3681 198.936 30.0925 198.936 29.7775C198.91 29.6725 198.778 29.62 198.542 29.62H198.345C197.951 29.62 197.61 29.8825 197.321 30.4075ZM205.787 30.0138L205.236 30.0531H205.157V30.1713C205.787 30.4338 206.194 30.565 206.378 30.565H206.417C206.417 30.3025 206.207 30.1188 205.787 30.0138ZM209.606 30.2106H209.449C209.449 30.4731 209.501 30.6044 209.606 30.6044L209.646 30.565V30.4469L209.606 30.2106ZM201.298 30.9194L201.22 30.9981L201.298 31.0375H201.456L201.574 30.9588V30.9194H201.298ZM195.589 33.6756V33.7938H195.707C195.865 33.7413 196.035 33.4394 196.219 32.8881C197.006 31.7856 197.531 31.2344 197.794 31.2344L197.951 30.9588H197.715C197.61 30.9588 197.177 31.2213 196.416 31.7463C195.917 32.4813 195.641 33.1244 195.589 33.6756ZM199.999 31.195L199.92 31.3131H200.314L200.432 31.2344V31.195H199.999ZM202.046 31.3919L202.125 31.4313H202.204L203.07 31.3131V31.2344L202.795 31.195C202.296 31.2213 202.046 31.2869 202.046 31.3919ZM204.133 31.195L204.055 31.3131L204.173 31.4313H204.409L204.488 31.3131C204.435 31.2344 204.33 31.195 204.173 31.195H204.133ZM205.945 31.2344H205.787L205.945 31.3919L206.023 31.3131L205.945 31.2344ZM206.811 31.4706H206.378C206.378 31.5756 206.758 31.7331 207.52 31.9431H207.559V31.825C207.349 31.5888 207.1 31.4706 206.811 31.4706ZM195.825 39.1488V39.7394C195.825 40.1069 196.324 41.17 197.321 42.9288C198.056 43.3225 198.844 43.5194 199.684 43.5194C201.495 43.5194 203.254 43.0863 204.96 42.22C205.669 41.1438 206.286 40.6056 206.811 40.6056C207.1 40.3169 207.415 39.3325 207.756 37.6525C207.966 37.18 208.071 36.6944 208.071 36.1956V35.8019C208.071 34.6994 207.926 34.1481 207.638 34.1481C207.034 33.5969 206.732 33.2688 206.732 33.1638L206.89 32.9275C206.89 32.8225 206.509 32.665 205.748 32.455L205.511 32.2975L205.551 32.2188H206.141V32.1794C206.141 31.9169 204.711 31.7725 201.85 31.7463L201.298 31.6281C199.198 31.8381 198.148 32.1138 198.148 32.455C197.177 33.61 196.547 35.0275 196.258 36.7075C195.97 37.705 195.825 38.5188 195.825 39.1488ZM207.323 32.9275L207.165 33.085V33.4L207.362 33.5969H207.48C207.585 33.5706 207.638 33.4656 207.638 33.2819C207.638 33.1244 207.559 33.0063 207.401 32.9275H207.323ZM195.195 37.18C195.195 37.2588 195.235 37.2981 195.313 37.2981C195.497 37.2981 195.628 37.0356 195.707 36.5106V36.2744H195.589C195.458 36.2744 195.326 36.5763 195.195 37.18ZM207.716 43.1256V43.3619C207.874 43.3619 207.953 43.48 207.953 43.7163H208.031L208.228 43.5194V43.2044C208.123 43.1256 208.071 42.9944 208.071 42.8106H207.953C207.795 42.8369 207.716 42.9419 207.716 43.1256ZM204.763 43.4406V43.5981H204.803C205.065 43.4931 205.275 43.3225 205.433 43.0863V43.0075L205.354 42.9288H205.275C205.091 43.0075 204.921 43.1781 204.763 43.4406ZM200.826 43.9525V44.0706H201.298C203.031 43.9656 203.989 43.7163 204.173 43.3225V43.2044H204.055C202.033 43.5456 200.957 43.795 200.826 43.9525ZM209.843 43.3619H209.803L209.764 43.6769V44.1888L209.843 44.3069H209.921L210 44.1888V43.795C210 43.5325 209.948 43.3881 209.843 43.3619ZM195.904 43.7163H195.746V43.8344C195.746 43.9919 196.18 44.11 197.046 44.1888V44.0706C196.442 43.8344 196.061 43.7163 195.904 43.7163ZM196.81 44.3463L196.691 44.425C196.691 44.7138 197.466 45.0025 199.015 45.2913H199.211L199.29 45.2125V45.1731C199.29 44.8844 198.542 44.6088 197.046 44.3463H196.81ZM207.953 44.5038L207.756 44.6613V44.74H207.874L208.031 44.5825V44.5038H207.953ZM201.81 44.8188V44.8975L201.928 44.9763H202.165C203.005 44.9238 203.425 44.845 203.425 44.74L203.306 44.6613H202.558C202.06 44.6613 201.81 44.7138 201.81 44.8188ZM210.118 44.7794H209.921V44.8975L210 44.9763H210.197V44.8975L210.118 44.7794ZM199.172 45.9606V46.0787L199.211 46.1969H199.723C200.143 46.1969 200.76 46.105 201.574 45.9213V45.8425L200.432 45.7244C199.592 45.7769 199.172 45.8556 199.172 45.9606ZM210.748 46.0394C210.775 46.1444 210.906 46.1969 211.142 46.1969H211.93L212.205 46.1181V46.0394C212.205 45.9606 212.048 45.895 211.733 45.8425C211.076 45.8688 210.748 45.9344 210.748 46.0394Z" fill="white"/>
</svg>
