<svg width="171" height="48" viewBox="0 0 171 48" fill="none" xmlns="http://www.w3.org/2000/svg">
<path d="M18.1304 4.86528C18.1304 6.73152 18.1304 9.53918 18.1304 12.4754C18.1304 16.1457 9.96039 21.3297 6.95368 22.9471C3.94696 24.5645 4.92155 30.184 6.95368 33.0455C8.9858 35.9071 16.907 37.9392 18.1304 36.4462C19.3538 34.9532 9.04017 23.0922 21.1371 20.2307C33.2341 17.3691 31.6295 31.1378 29.9914 33.0455C28.3532 34.9532 23.3026 35.2228 13.0915 27.592C2.8805 19.9611 12.4072 14.0928 14.5845 13.139C16.7618 12.1851 24.1438 15.1918 25.2221 17.9082C26.3004 20.6247 23.0448 24.4608 21.1371 26.3685C19.2294 28.2762 14.4601 30.184 14.5845 35.2228C14.7089 40.2617 19.7893 44.3259 21.0334 43.2477C22.2776 42.1694 22.796 41.2359 22.796 38.2915C22.796 35.1794 24.8074 35.2228 25.2221 30.184C25.6368 25.1451 24.1438 22.408 18.1304 20.2307C12.1169 18.0534 12.5524 27.592 12.4072 30.184C12.2621 32.776 23.3144 40.2617 26.4455 30.184C29.5767 20.1063 17.3407 15.157 9.96039 16.0005C3.43706 16.7461 -5.79694 25.1458 8.70656 30.166C8.73972 30.1775 8.77432 30.1869 8.80884 30.1932C12.2815 30.8266 19.8545 31.5083 22.776 29.2301C26.4455 26.3685 20.3077 20.7698 20.3077 16.0005C20.3077 12.1851 20.3077 12.1021 20.3077 9.24058M18.1304 4.86528C16.4475 5.97418 12.5183 6.87886 9.72627 2.13308C9.51004 1.76554 9.69701 1.2974 10.1098 1.19029C12.8029 0.491425 17.2279 0.458292 18.1304 4.86528ZM20.3077 9.24058C20.5931 7.32078 23.4687 3.90048 27.208 5.34894C27.4868 5.45695 27.6467 5.74966 27.5958 6.04431C26.6975 11.2403 21.7562 9.64301 20.3077 9.24058Z" stroke="#1B065E" stroke-width="1.36858"/>
<path d="M44.2088 16.7043L44.5868 16.8303C45.6578 16.7463 48.1253 16.7043 51.9893 16.7043L53.5013 17.1768C54.4673 17.3028 55.1183 17.5023 55.4543 17.7753C57.0083 19.1403 57.7853 20.3163 57.7853 21.3033C57.6803 21.8493 57.4598 22.7103 57.1238 23.8863C56.3888 24.6423 55.6958 25.2618 55.0448 25.7448C55.0448 25.9338 55.2443 26.1018 55.6433 26.2488C55.8533 26.3958 56.1893 26.5638 56.6513 26.7528C56.9033 27.0048 57.3128 27.5088 57.8798 28.2648C58.6358 29.0208 59.0768 29.9343 59.2028 31.0053L59.2343 31.3518C59.2343 31.5618 59.1608 31.6668 59.0138 31.6668V31.6983C59.0138 31.8243 59.1293 32.0973 59.3603 32.5173V32.8008C59.3603 32.9898 59.2133 33.4098 58.9193 34.0608C58.9193 34.3338 58.6883 34.5123 58.2263 34.5963C57.9533 34.5963 57.6803 34.7853 57.4073 35.1633V35.2263C57.4073 35.2683 57.4913 35.3103 57.6593 35.3523V35.3838C57.6173 35.4888 57.5438 35.5413 57.4388 35.5413C57.4388 35.4153 57.4073 35.3523 57.3443 35.3523C57.3023 35.3523 57.2603 35.4363 57.2183 35.6043C56.8403 35.6043 56.3888 35.7723 55.8638 36.1083V36.1713H55.9583C56.0843 36.1713 56.3888 36.0663 56.8718 35.8563V35.8878C56.5568 36.1818 55.9163 36.4338 54.9503 36.6438C53.6063 37.2528 50.8973 37.5573 46.8233 37.5573V37.4943L46.7918 37.3368C45.8258 37.3368 44.9438 37.5258 44.1458 37.9038C43.8098 37.9038 43.6418 37.3263 43.6418 36.1713C43.6418 36.0033 44.2718 35.7408 45.5318 35.3838C46.4558 35.2788 46.9178 35.1843 46.9178 35.1003V35.0688C46.7918 35.0688 46.6448 34.1868 46.4768 32.4228C46.4348 31.7298 46.3718 31.2573 46.2878 31.0053C46.2878 30.7743 46.3718 30.4698 46.5398 30.0918C46.4978 28.5798 46.3823 27.8238 46.1933 27.8238C46.0673 27.8238 45.9623 26.1123 45.8783 22.6893V19.4763C45.4163 19.2873 45.1118 19.1928 44.9648 19.1928H44.7443C44.5973 19.1928 44.5028 19.2453 44.4608 19.3503V19.4133L44.4923 19.6653C44.4923 19.7073 44.3453 20.0538 44.0513 20.7048V20.7678L43.5473 20.7993C43.4843 20.6943 43.2848 20.6313 42.9488 20.6103C42.7598 20.6103 42.6338 19.9908 42.5708 18.7518C42.5078 18.3948 42.3923 17.9853 42.2243 17.5233C42.5393 17.0823 42.8858 16.8618 43.2638 16.8618C43.2638 16.8198 43.5788 16.7673 44.2088 16.7043ZM47.1383 17.7438L47.2013 17.7753H48.0833C48.8813 17.7753 49.2803 17.6913 49.2803 17.5233V17.4918C49.2803 17.4708 49.2173 17.4393 49.0913 17.3973C47.8523 17.4603 47.2013 17.5758 47.1383 17.7438ZM45.7208 17.6493L46.5398 17.9013H46.6028C46.7288 17.9013 46.8338 17.8383 46.9178 17.7123C46.9178 17.6073 46.6763 17.5338 46.1933 17.4918C45.8783 17.5128 45.7208 17.5653 45.7208 17.6493ZM50.1308 17.4918H49.9733V17.5863H50.1308V17.4918ZM55.2338 18.2478L55.1393 18.3423V18.3738L55.2653 18.5313H55.4543L55.5173 18.4368V18.4053L55.3913 18.2478H55.2338ZM47.7053 18.6888V18.7518L47.7998 18.8778H47.9258C48.9968 18.7728 49.5743 18.6468 49.6583 18.4998L49.5953 18.4368C48.3353 18.4998 47.7053 18.5838 47.7053 18.6888ZM47.9258 19.5393C48.0938 24.0543 48.2408 26.3118 48.3668 26.3118L48.4613 26.3748H48.4928L51.3593 25.7133C52.6193 25.5453 53.2493 25.3773 53.2493 25.2093C54.7613 24.0333 55.5173 23.2248 55.5173 22.7838V22.5948C55.2863 21.3978 55.1708 20.7258 55.1708 20.5788C55.1708 20.0328 54.8033 19.5183 54.0683 19.0353C53.7953 18.9723 53.2808 18.9303 52.5248 18.9093C49.4588 19.0773 47.9258 19.2873 47.9258 19.5393ZM55.2338 19.1928H54.9503V19.2873C55.3283 19.6233 55.5173 20.0958 55.5173 20.7048C55.6853 21.3138 55.8008 21.6708 55.8638 21.7758H55.9268V21.4923C55.7378 19.9593 55.5068 19.1928 55.2338 19.1928ZM56.9663 19.8858H56.8718V19.9803L57.0293 20.1063H57.1238V20.0118L56.9663 19.8858ZM56.3993 20.6103L56.3048 20.7048L56.3363 20.8308H56.4308L56.6198 20.6733L56.5253 20.6103H56.3993ZM56.6198 21.4293L56.5253 21.3663L56.4938 21.3978V21.5553L56.5568 21.6183L56.6198 21.5868V21.4293ZM46.2878 22.2168L46.1933 22.3113V22.5948L46.2878 22.6578H46.3193L46.4138 22.5948V22.4688C46.4138 22.3218 46.3718 22.2378 46.2878 22.2168ZM54.7298 25.0833L54.6038 25.2093H54.6983L54.7613 25.1463V25.0833H54.7298ZM50.1623 26.4693H50.2568V26.5008C51.5588 26.3958 52.2098 26.2803 52.2098 26.1543V26.1228H52.0523C50.8973 26.1438 50.2673 26.2593 50.1623 26.4693ZM53.5013 26.4378V26.5008H53.5328C53.9738 26.5008 54.5408 26.6058 55.2338 26.8158C55.2968 26.8158 55.3283 26.7738 55.3283 26.6898C55.2023 26.3958 54.9188 26.2488 54.4778 26.2488H54.1313C53.7113 26.2488 53.5013 26.3118 53.5013 26.4378ZM55.7378 26.9103V26.9418C55.9898 27.2358 56.2208 27.3828 56.4308 27.3828V27.3513C56.4308 27.1413 56.1998 26.9943 55.7378 26.9103ZM50.2883 27.6033C50.2883 27.6453 50.3303 27.6663 50.4143 27.6663C50.9813 27.6453 51.5798 27.5613 52.2098 27.4143L53.3123 27.3828H53.6903L53.9108 27.3513V27.2883C53.9108 27.1833 53.5958 27.1308 52.9658 27.1308H52.3988C51.2648 27.1308 50.5613 27.2883 50.2883 27.6033ZM49.9733 27.4773H49.8473V27.5403H49.9733V27.4773ZM54.7613 27.4773H54.6983V27.6033H54.7613V27.4773ZM48.3038 27.9183V27.9813H48.3983C48.9233 27.9183 49.1858 27.8343 49.1858 27.7293H49.0913C48.9023 27.7293 48.6398 27.7923 48.3038 27.9183ZM48.2408 28.3908L48.1463 28.5483L48.1148 29.2413C48.1988 32.8323 48.3563 34.8693 48.5873 35.3523C48.6923 35.7093 48.9443 35.8878 49.3433 35.8878L52.1468 36.0138C53.2808 35.9508 54.6668 35.4678 56.3048 34.5648C57.1028 33.7668 57.5018 33.2208 57.5018 32.9268C57.5858 32.9268 57.6383 32.8218 57.6593 32.6118V32.5173C57.6593 31.5723 57.3758 30.5643 56.8088 29.4933C56.2208 28.8633 55.7483 28.5483 55.3913 28.5483H55.1393C55.0133 28.5063 54.9503 28.4748 54.9503 28.4538C54.9503 28.3698 55.0238 28.3278 55.1708 28.3278V28.2648C55.0238 28.0548 54.7928 27.9498 54.4778 27.9498H54.4463V27.9813L54.6038 28.1703V28.2333H54.5408C53.5748 27.9183 52.7978 27.7608 52.2098 27.7608H52.0523C50.6033 27.7608 49.3328 27.9708 48.2408 28.3908ZM56.6198 28.0128L56.5253 28.0758C56.6093 28.3908 56.8718 28.7163 57.3128 29.0523H57.4073V28.9263C57.3443 28.6323 57.0923 28.3278 56.6513 28.0128H56.6198ZM56.2418 35.4153L56.3048 35.4783H56.3363C56.6093 35.4783 56.8193 35.3208 56.9663 35.0058V34.9743H56.9348C56.4728 35.1213 56.2418 35.2683 56.2418 35.4153ZM47.2958 35.1633H47.1068V35.1948C47.1278 35.2788 47.2013 35.3208 47.3273 35.3208V35.2263L47.2958 35.1633ZM55.3913 35.7933V35.9193H55.5173C55.6643 35.9193 55.8008 35.8248 55.9268 35.6358V35.5413C55.5698 35.6043 55.3913 35.6883 55.3913 35.7933ZM46.4453 36.3288H46.2248V36.4863H46.4453H46.6028H46.7918V36.3288H46.6028H46.4453ZM49.4063 36.6438L49.3433 36.7068H49.5008L49.4063 36.6438ZM45.0278 36.7698L44.9333 36.8013C44.9753 36.9063 45.0593 36.9588 45.1853 36.9588L45.3113 36.8013L45.2483 36.7698H45.0278ZM71.8028 21.9333C72.6218 21.9333 73.3148 22.5108 73.8818 23.6658C73.9868 23.6658 74.1338 23.8023 74.3228 24.0753L74.7323 26.4063C74.5853 26.6583 74.0288 26.7843 73.0628 26.7843H72.7478C71.9708 26.6583 71.5823 26.3958 71.5823 25.9968C71.5823 25.7028 71.3408 25.2933 70.8578 24.7683C70.7948 24.6633 70.3433 24.6108 69.5033 24.6108C68.7053 24.6108 67.7393 24.8208 66.6053 25.2408C65.8073 26.0808 65.2823 26.7318 65.0303 27.1938C65.1773 30.7848 65.2298 33.0318 65.1878 33.9348C65.1878 34.1238 65.3138 34.2183 65.5658 34.2183H66.3218C66.6578 34.2393 66.8258 34.3023 66.8258 34.4073V34.4388L66.9518 34.8483L66.8888 36.6123L66.6998 36.8643L65.2193 37.0218H65.0933L64.4633 37.2108C62.0483 37.1268 60.8408 37.0323 60.8408 36.9273C60.4208 36.9273 60.2108 36.7383 60.2108 36.3603C60.1688 35.9823 60.1478 35.5938 60.1478 35.1948C60.1478 34.7958 60.5573 34.5333 61.3763 34.4073C61.3763 34.2393 61.6598 34.1553 62.2268 34.1553L62.3213 34.1238V34.0608L62.1323 25.4298C62.1323 24.9048 61.9958 24.6423 61.7228 24.6423H61.5338C61.2818 24.6423 60.8618 24.7578 60.2738 24.9888L60.2108 24.9258V24.8628C60.2108 24.8208 60.2948 24.7683 60.4628 24.7053V24.6423C60.2528 24.6423 60.1478 24.0543 60.1478 22.8783C60.1058 22.8783 60.0743 22.6893 60.0533 22.3113C60.8933 21.6603 61.7753 21.3348 62.6993 21.3348H63.4868C63.8018 21.3348 64.3373 21.4398 65.0933 21.6498V21.7443C64.9043 22.0383 64.8098 22.2483 64.8098 22.3743V22.5948C66.5108 21.8388 68.8418 21.6183 71.8028 21.9333ZM63.5498 26.6898V26.8473C63.6548 27.0573 63.7073 27.2778 63.7073 27.5088C63.6863 27.5928 63.6548 28.0233 63.6128 28.8003L63.6758 30.0603H63.7073C63.7703 30.0603 63.8543 29.0838 63.9593 27.1308C64.0013 27.1308 64.0223 26.9208 64.0223 26.5008C64.0013 26.3118 63.9488 26.2173 63.8648 26.2173H63.8018C63.6338 26.3223 63.5498 26.4798 63.5498 26.6898ZM61.6598 36.2028L61.2503 36.2343V36.2973C61.2503 36.4023 61.5548 36.4548 62.1638 36.4548H63.1088L63.3293 36.4233C63.3293 36.3183 62.7728 36.2448 61.6598 36.2028ZM67.1093 23.2878V23.3508C67.2983 23.3508 67.5503 23.0463 67.8653 22.4373V22.2798H67.8338C67.2878 22.4478 67.0463 22.7838 67.1093 23.2878ZM71.1728 24.2958H71.3303C71.4353 24.2748 71.6348 24.0228 71.9288 23.5398V23.5083C71.9288 23.4663 71.8868 23.4453 71.8028 23.4453C71.4458 23.6133 71.2673 23.8338 71.2673 24.1068C71.2463 24.1068 71.2148 24.1698 71.1728 24.2958ZM63.9278 25.0203H63.8018L63.6443 25.6818C63.6443 25.7868 63.7073 25.8918 63.8333 25.9968H63.8648C63.9278 25.9968 63.9803 25.8498 64.0223 25.5558L63.9278 25.0203ZM68.3063 22.5948L68.4638 23.2248H68.7158V22.5633L68.6213 22.4688H68.5268C68.3798 22.4898 68.3063 22.5318 68.3063 22.5948ZM61.4393 35.6988L61.3763 35.7618L61.4078 35.8248H63.1403V35.7303L62.0693 35.6988H61.4393ZM60.8723 22.5633C61.0403 22.7313 61.2188 22.8153 61.4078 22.8153L61.4393 22.7523V22.5318L61.3133 22.3743C61.0193 22.4163 60.8723 22.4793 60.8723 22.5633ZM64.0538 35.9193L64.1483 36.0138H64.6208L64.7468 35.8878C64.7468 35.8458 64.6943 35.8038 64.5893 35.7618C64.2323 35.8038 64.0538 35.8563 64.0538 35.9193ZM73.1258 23.4138H73.0313V23.4768C73.1993 23.6448 73.3463 23.7288 73.4723 23.7288H73.5668V23.6658C73.3988 23.4978 73.2518 23.4138 73.1258 23.4138ZM62.3213 21.9333H62.2268V22.0593L62.4158 22.2798H62.6993V22.2168L62.3213 21.9333ZM61.3763 23.7918V23.8548H61.4708C61.7018 23.8548 61.8278 23.8128 61.8488 23.7288L61.7858 23.6343H61.7228C61.5338 23.6343 61.4183 23.6868 61.3763 23.7918ZM69.4403 22.3113L69.0623 22.3428V22.3743L69.1253 22.4688H69.4403C69.5873 22.4688 69.6713 22.4268 69.6923 22.3428L69.6293 22.3113H69.4403ZM64.4633 32.4543L64.3373 32.5488V32.8008H64.4633L64.5893 32.7063V32.5173L64.5263 32.4543H64.4633ZM60.6833 35.8878L60.5573 35.7618L60.4943 35.8878V36.0138L60.5573 36.1083H60.6833V35.8878ZM65.0933 23.9808L64.9673 24.0123V24.1068L65.0933 24.2013H65.1878L65.2823 24.1068V24.0123L65.0933 23.9808ZM70.0703 22.2798V22.3428H70.2908L70.4168 22.2483L70.3223 22.1538C70.1543 22.1958 70.0703 22.2378 70.0703 22.2798ZM72.1493 22.2798L72.0863 22.3428V22.3743L72.1493 22.4688H72.2753L72.3383 22.3743V22.3428L72.2753 22.2798H72.1493ZM64.4948 21.9648L64.3373 22.0278V22.1538H64.4948L64.5893 22.0278L64.4948 21.9648ZM64.4003 22.5318L64.2743 22.6263V22.6893L64.3373 22.7523L64.4948 22.6263V22.5318H64.4003ZM72.0548 25.1463V25.2093H72.1178L72.2438 25.1148V25.0203H72.2123C72.1073 25.0833 72.0548 25.1253 72.0548 25.1463ZM70.9838 22.3743L70.8578 22.4688V22.5003H71.0153L71.0783 22.4373V22.3743H70.9838ZM64.4633 33.1473H64.4003V33.2733H64.4633V33.1473ZM79.6148 19.5393L83.5208 19.4448C83.8568 19.4448 84.5603 19.5918 85.6313 19.8858C86.8493 21.0408 87.5738 21.9438 87.8048 22.5948C88.2668 23.0778 88.6343 24.0333 88.9073 25.4613C89.2433 25.7973 89.4113 26.5428 89.4113 27.6978L89.4428 28.4853L89.3168 31.6038C89.3168 32.2338 89.7053 33.0108 90.4823 33.9348C91.1963 34.6278 91.6583 34.9743 91.8683 34.9743V35.0373C91.8683 35.2893 91.5008 35.6883 90.7658 36.2343C90.2198 36.7803 89.8733 37.0533 89.7263 37.0533H89.6948C89.3588 37.0113 88.5083 36.3918 87.1433 35.1948C84.6653 36.1608 83.4158 36.6543 83.3948 36.6753C82.5758 36.9273 81.6623 37.0533 80.6543 37.0533H80.4968C79.3628 36.8643 78.3968 36.4233 77.5988 35.7303C77.4518 35.6043 77.1473 35.0793 76.6853 34.1553C76.3073 33.6933 76.1183 33.1263 76.1183 32.4543V31.5408C76.1183 30.9528 76.2758 30.4068 76.5908 29.9028C76.8638 29.0418 77.3363 28.2228 78.0083 27.4458C78.3443 27.0468 78.6803 26.7948 79.0163 26.6898C80.1083 26.1018 81.1898 25.8078 82.2608 25.8078L83.6783 25.7763H83.8673C84.6653 25.7763 85.2323 25.8918 85.5683 26.1228H85.7573C85.8623 26.1228 85.9148 26.0808 85.9148 25.9968C85.6838 25.0098 85.3058 24.0648 84.7808 23.1618C84.3188 22.3848 83.4578 21.9963 82.1978 21.9963L80.9063 21.8073C79.7933 22.0383 79.2368 22.2693 79.2368 22.5003C78.7958 23.0673 78.5333 23.7708 78.4493 24.6108C78.4073 24.7158 78.0293 24.7683 77.3153 24.7683L77.1263 24.8313C77.0423 24.8313 76.9373 25.0098 76.8113 25.3668C76.2233 25.2828 75.9293 25.1568 75.9293 24.9888C75.9713 24.8628 76.0448 24.1068 76.1498 22.7208C76.4858 21.7548 77.2838 20.8623 78.5438 20.0433C79.1318 19.7073 79.4888 19.5393 79.6148 19.5393ZM83.1428 20.0748L83.0798 20.1693L83.1743 20.2953H83.3633L83.3948 20.2323L83.3003 20.0748H83.1428ZM85.5368 20.3268H85.4738V20.3898C85.6418 20.5578 85.7888 20.6418 85.9148 20.6418H85.9463V20.5788C85.7783 20.4108 85.6418 20.3268 85.5368 20.3268ZM80.4968 20.4843V20.5788C80.5178 20.6418 80.6228 20.6733 80.8118 20.6733C81.0008 20.6733 81.2633 20.6103 81.5993 20.4843V20.3583H81.4733C81.0113 20.3583 80.6858 20.4003 80.4968 20.4843ZM77.6618 21.4923V21.5553H77.6933C77.8823 21.5553 78.1658 21.3558 78.5438 20.9568V20.8623H78.5123C78.3023 20.8623 78.0188 21.0723 77.6618 21.4923ZM82.0403 21.2718L81.8828 21.3978L81.9773 21.5553H82.3868L82.4813 21.4608L82.2923 21.2718H82.0403ZM77.4098 23.8233L77.3153 23.8863V24.3588H77.3468C77.4308 24.3378 77.4728 24.2643 77.4728 24.1383V23.8863L77.4098 23.8233ZM88.8443 26.3433H88.8128V26.4063C88.8548 26.5743 88.8968 26.6583 88.9388 26.6583L88.9703 26.5008C88.9283 26.3958 88.8863 26.3433 88.8443 26.3433ZM88.1198 27.4458L88.0253 27.5088V27.6033C88.1093 27.9183 88.1933 28.0758 88.2773 28.0758H88.3403C88.3403 27.8028 88.2773 27.5928 88.1513 27.4458H88.1198ZM78.8903 27.6348L78.5438 27.7923V27.9498H78.6068C78.7538 27.9498 78.8588 27.8658 78.9218 27.6978V27.6348H78.8903ZM78.5438 30.6273C78.6908 31.8873 78.8693 32.5173 79.0793 32.5173L79.3943 32.9268V32.9583L79.1108 32.9268V33.0213C79.5098 33.5673 80.3288 34.0713 81.5678 34.5333C81.7148 34.6173 81.9248 34.6803 82.1978 34.7223C82.5758 34.7223 84.0248 34.1028 86.5448 32.8638C86.7128 32.7588 86.7968 32.6433 86.7968 32.5173V32.3598C86.6078 31.4988 86.4503 30.4908 86.3243 29.3358L86.2613 29.3043C86.2613 29.0733 86.0303 28.8843 85.5683 28.7373C84.0143 28.2963 82.9538 28.0758 82.3868 28.0758C80.7908 28.4328 79.6988 28.9683 79.1108 29.6823C78.7328 30.0603 78.5438 30.3753 78.5438 30.6273ZM88.0253 28.5798L87.9308 28.5168V28.6113H88.0253V28.5798ZM88.1513 29.1783H87.9623V29.3043L88.0568 29.3988L88.1513 29.3043V29.1783ZM87.1433 29.9658L87.0488 30.0603L87.1433 30.1863L87.2693 30.1548V30.0603L87.1748 29.9658H87.1433ZM88.2773 30.0603H88.1828V30.0918C88.2248 30.8898 88.3088 31.2888 88.4348 31.2888L88.4978 31.2258V31.1628C88.4978 30.7218 88.4243 30.3543 88.2773 30.0603ZM87.0488 31.0683L87.0173 31.0998V31.2888L87.1118 31.4148H87.1433L87.2693 31.2888V31.0998L87.1748 31.0683H87.0488ZM89.7263 34.0293H89.6318V34.2183C89.7158 34.4913 89.8103 34.6278 89.9153 34.6278H90.0098V34.5333C89.9258 34.1973 89.8313 34.0293 89.7263 34.0293ZM78.1343 34.1238L78.0713 34.1868V34.2183L78.1343 34.2813H78.2918V34.2183L78.1973 34.1238H78.1343ZM88.7498 34.5333L88.6553 34.6278C88.7183 34.7748 88.8023 34.8693 88.9073 34.9113H88.9388L89.0648 34.7853V34.7223L88.9073 34.5333H88.7498ZM84.1823 34.9743V35.0373H84.3083C84.6023 35.0373 84.9908 34.9113 85.4738 34.6593V34.6278H85.3478C84.6338 34.7118 84.2453 34.8273 84.1823 34.9743ZM89.4428 35.0688L89.3798 35.1948V35.2578L89.5058 35.3838H89.6318L89.7263 35.3208V35.2578L89.5688 35.0688H89.4428ZM81.6623 35.3208L81.5678 35.4153C81.6098 35.5203 81.6938 35.5728 81.8198 35.5728C82.0508 35.5308 82.1663 35.4783 82.1663 35.4153V35.3838L82.0718 35.3208H81.6623ZM78.2288 35.7618L78.1343 35.8878C78.2183 36.0768 78.7433 36.3183 79.7093 36.6123C80.0243 36.7593 80.4443 36.8328 80.9693 36.8328V36.8013C80.9693 36.7383 80.5703 36.6228 79.7723 36.4548C79.3103 36.3288 78.8273 36.0978 78.3233 35.7618H78.2288ZM96.9083 14.3733L97.9793 14.2158C98.7143 14.2158 99.2918 14.5938 99.7118 15.3498L99.9323 16.3578C99.8903 16.7568 99.6593 17.2818 99.2393 17.9328C98.9663 18.2058 98.5463 18.3423 97.9793 18.3423C96.6563 18.3423 95.8373 18.1428 95.5223 17.7438C95.2073 17.3238 95.0603 16.7358 95.0813 15.9798C94.9973 15.9798 94.9553 15.9588 94.9553 15.9168V15.8538C95.5853 14.8668 96.2363 14.3733 96.9083 14.3733ZM96.2783 15.1608V15.1923C96.9923 15.1083 97.3493 15.0138 97.3493 14.9088L97.1918 14.8458C96.5828 14.9508 96.2783 15.0558 96.2783 15.1608ZM96.8138 16.0743H96.8453L97.0343 16.1058H97.0973C97.3283 16.1058 97.4753 16.0218 97.5383 15.8538L97.5068 15.7908H97.1288C96.9608 15.7908 96.8558 15.8853 96.8138 16.0743ZM99.0818 15.7908L98.9873 15.9483V16.0743H99.0188L99.1133 15.9483V15.7908H99.0818ZM98.3258 16.8303V16.9248H98.4518C98.5988 16.9248 98.7143 16.8513 98.7983 16.7043V16.6098H98.7353C98.5883 16.6098 98.4518 16.6833 98.3258 16.8303ZM97.6328 17.3973L97.5383 17.4918V17.5548H98.1053L98.1998 17.4918L98.1053 17.3973H97.6328ZM93.6323 20.3898H93.7268C93.8948 20.5368 94.1048 20.6103 94.3568 20.6103L94.7663 20.4213C97.6223 20.4213 99.0503 20.5053 99.0503 20.6733L99.0818 20.8938V21.4293C99.2708 21.8493 99.3653 22.2483 99.3653 22.6263V23.1303C99.1133 26.5533 98.9453 29.3253 98.8613 31.4463C98.8193 31.5723 98.7773 31.7928 98.7353 32.1078C98.7563 32.1918 98.8508 32.2338 99.0188 32.2338H99.1133C100.247 32.2338 100.814 32.3703 100.814 32.6433L100.783 32.7063V32.8953C101.035 33.3993 101.161 34.1973 101.161 35.2893L101.287 36.5493L101.192 36.6123L99.8063 36.6753H96.6563C94.3043 36.6753 93.1283 36.4863 93.1283 36.1083C93.1283 35.8773 93.0653 35.6463 92.9393 35.4153C93.0023 35.2683 93.1073 35.1528 93.2543 35.0688H93.3488C93.4328 35.1528 93.5273 35.1948 93.6323 35.1948H93.6953C94.3043 35.1948 95.0288 35.1423 95.8688 35.0373V34.9743C94.0628 34.8483 93.1598 34.7013 93.1598 34.5333L93.1283 34.2813V33.9348L93.0653 33.1158C93.0653 32.9058 93.8528 32.8008 95.4278 32.8008C95.6378 32.8008 95.7428 32.3283 95.7428 31.3833L96.1208 23.0988H96.0578C95.4698 23.0988 95.1758 23.0568 95.1758 22.9728C95.1758 22.9518 95.2073 22.9203 95.2703 22.8783C94.0103 22.8783 93.3803 22.7313 93.3803 22.4373C93.2963 22.4163 93.2543 22.3323 93.2543 22.1853L93.4118 21.8073C93.4118 21.7233 93.3488 21.6078 93.2228 21.4608C93.3908 21.2928 93.5063 20.9568 93.5693 20.4528L93.6323 20.3898ZM94.1363 21.0198V21.1458H94.2938C94.8398 21.1458 95.1128 21.1038 95.1128 21.0198L95.0498 20.8938H94.9553C94.4093 20.8938 94.1363 20.9358 94.1363 21.0198ZM98.4203 20.7993L98.3258 20.8938L98.4518 20.9883H98.5148V20.8938L98.4203 20.7993ZM94.8293 21.4608H94.2623V21.5553C94.2623 21.6393 94.4093 21.6813 94.7033 21.6813H95.0498H95.1443H96.1838C96.4988 21.6813 96.6563 21.6288 96.6563 21.5238V21.4923C96.6563 21.3873 96.0473 21.3768 94.8293 21.4608ZM97.6328 21.4923L97.3493 21.4608V21.5238C97.4963 21.5238 97.6748 21.6288 97.8848 21.8388H97.9478C97.9898 21.8388 98.0108 21.8073 98.0108 21.7443H98.0738C98.1578 21.7443 98.2103 21.8388 98.2313 22.0278H98.2943L98.7353 21.7128V21.5238L98.0738 21.4923H97.6328ZM97.5068 23.2563L97.6643 23.7288L97.4438 24.2958C97.5278 24.4848 97.6013 24.5793 97.6643 24.5793H97.6958L97.7588 24.3903V24.2013C97.7588 23.4453 97.8743 23.0673 98.1053 23.0673L98.1998 22.9413V22.8153L98.1053 22.7208H97.9163C97.6433 22.7208 97.5068 22.8993 97.5068 23.2563ZM96.5303 26.2488L96.4358 30.3123C96.4568 30.4593 96.4883 30.5328 96.5303 30.5328C96.5933 30.5328 96.6353 30.4383 96.6563 30.2493L96.6248 29.7768C96.7298 29.6718 96.8453 29.2518 96.9713 28.5168V28.3278L96.9083 27.8868C97.0343 27.7818 97.0973 27.7083 97.0973 27.6663C97.0133 27.4353 96.9713 27.2043 96.9713 26.9733V26.9103C97.0553 26.9103 97.1603 25.7343 97.2863 23.3823C97.2233 23.2143 97.1603 23.1303 97.0973 23.1303C96.7823 23.1303 96.5933 24.1698 96.5303 26.2488ZM98.0738 23.4768L97.9478 23.5083V23.6973C97.9478 23.8233 98.0003 23.9178 98.1053 23.9808H98.1998L98.2943 23.8548V23.6973C98.2523 23.5923 98.1788 23.5188 98.0738 23.4768ZM97.9163 28.6113H97.7588C97.5908 29.3883 97.5068 29.9658 97.5068 30.3438H97.5383C97.6433 30.3438 97.7798 29.9133 97.9478 29.0523V28.8318L97.9163 28.6113ZM97.3178 31.5723V31.7928H97.3808C97.4858 31.7508 97.5383 31.6248 97.5383 31.4148V31.1943H97.4438C97.4018 31.1943 97.3598 31.3203 97.3178 31.5723ZM97.3808 32.0448L97.2863 32.1708V32.3283H97.3808L97.5068 32.2338V32.1393L97.4123 32.0448H97.3808ZM99.9008 32.8008L99.8063 32.8323C99.9323 32.9373 100.163 33.0003 100.499 33.0213V32.9268C100.499 32.8428 100.363 32.8008 100.09 32.8008H99.9008ZM100.027 34.1238L99.6488 34.2183C99.6908 34.4703 99.8798 34.5963 100.216 34.5963H100.31V34.5018L100.247 34.4073C100.247 34.3863 100.331 34.3233 100.499 34.2183V34.0608C100.499 33.9138 100.457 33.8298 100.373 33.8088H100.247C100.184 33.8298 100.111 33.9348 100.027 34.1238ZM94.0103 33.8403L93.7898 33.9033V33.9348C93.9578 34.1028 94.6088 34.1973 95.7428 34.2183H95.9633C96.1313 34.2183 96.2363 34.1658 96.2783 34.0608V33.9978C95.3963 33.8928 94.6403 33.8403 94.0103 33.8403ZM96.9713 34.2183L97.0973 34.3758C97.2863 34.3758 97.3808 34.2708 97.3808 34.0608H97.2233C97.0973 34.0608 97.0133 34.1133 96.9713 34.2183ZM99.9323 34.8483L99.8378 34.9743V35.0373H99.9008L99.9953 34.9113V34.8483H99.9323ZM97.5068 35.0373L97.0973 35.0688H96.6563V35.1948L97.0973 35.2263L98.0108 35.1633V35.0688H97.8848L97.5068 35.0373ZM100.72 36.1083L100.594 36.2028V36.2973H100.783L100.814 36.2028L100.783 36.1083H100.72ZM102.169 20.7363L102.232 20.6733C102.715 20.7573 103.219 20.7993 103.744 20.7993H106.327L106.421 20.8938C106.295 21.2718 106.232 21.5658 106.232 21.7758V22.3113C106.316 22.8993 106.484 23.1933 106.736 23.1933C106.862 22.9623 107.282 22.7418 107.996 22.5318C109.697 21.7968 111.083 21.4293 112.154 21.4293C112.868 21.4293 113.635 21.7443 114.454 22.3743C115.063 22.6053 115.651 23.0988 116.218 23.8548C117.079 25.2198 117.509 26.8263 117.509 28.6743V28.9263L117.289 31.1943L117.509 32.8323L117.194 34.3128V34.3758V34.6278L118.391 34.6908H118.927C119.284 34.6908 119.494 34.7223 119.557 34.7853C119.473 36.3183 119.315 37.0848 119.084 37.0848C118.664 37.3368 118.213 37.4628 117.73 37.4628H117.068C116.06 37.4628 115 37.5993 113.887 37.8723C113.152 37.7673 112.784 37.3998 112.784 36.7698L112.753 35.6358C112.753 34.9428 112.931 34.4388 113.288 34.1238C113.477 33.0948 113.698 32.1603 113.95 31.3203L114.139 28.5168C114.202 28.5168 114.233 28.2858 114.233 27.8238C114.233 27.2568 113.782 26.4483 112.879 25.3983C112.186 25.1043 111.787 24.9573 111.682 24.9573C110.464 24.9573 109.372 25.4718 108.406 26.5008C108.322 26.5008 107.807 27.0153 106.862 28.0443C106.568 28.2753 106.421 28.9788 106.421 30.1548C106.463 32.2758 106.537 33.3363 106.642 33.3363C107.482 33.4833 107.902 33.6408 107.902 33.8088V33.9348L107.209 33.9033L106.705 33.9348V34.0608C106.705 34.1448 107.104 34.2498 107.902 34.3758C108.049 34.5228 108.122 34.7643 108.122 35.1003V35.1633C108.122 35.6673 108.017 36.2028 107.807 36.7698L104.153 36.8013C103.796 36.8013 103.534 36.6228 103.366 36.2658C103.282 35.8668 103.187 35.0898 103.082 33.9348C103.082 33.8298 103.397 33.7143 104.027 33.5883L104.185 33.3678V33.3363C104.185 33.2103 104.101 33.0318 103.933 32.8008V31.8243V30.0288L104.059 27.1308C104.059 25.1568 103.975 24.1698 103.807 24.1698H103.649L102.169 24.3588C102.022 24.3588 101.822 24.2328 101.57 23.9808V23.8548C101.675 23.6868 101.728 23.5083 101.728 23.3193L101.665 22.1538L102.169 20.7363ZM104.909 21.3033L102.326 21.7128V21.7758C102.326 21.8388 102.484 21.8808 102.799 21.9018C104.164 21.9018 104.846 21.8073 104.846 21.6183L104.972 21.4293V21.3663H104.909V21.3033ZM111.178 21.9018V21.9333C111.325 21.9333 111.577 22.0593 111.934 22.3113L112.28 22.4058L113.288 22.3743L113.32 22.3113V22.2798C113.299 22.1538 113.183 22.0908 112.973 22.0908H112.847L112.532 22.1538C112.07 21.8808 111.734 21.7443 111.524 21.7443C111.335 21.7443 111.22 21.7968 111.178 21.9018ZM109.036 22.4688V22.5003L109.099 22.5948C110.086 22.3428 110.579 22.1538 110.579 22.0278H110.516C110.054 22.0278 109.561 22.1748 109.036 22.4688ZM102.956 22.5003L103.051 22.5948H103.114C103.387 22.5738 103.523 22.5108 103.523 22.4058L103.366 22.3743C103.093 22.3743 102.956 22.4163 102.956 22.5003ZM103.24 23.1303V23.1933L103.838 23.1618H103.933C104.143 23.1618 104.269 23.2143 104.311 23.3193V23.4138C104.206 23.5188 104.153 23.6238 104.153 23.7288C104.258 23.8128 104.384 23.8548 104.531 23.8548C104.594 23.8548 104.626 23.8128 104.626 23.7288L104.657 22.6893L104.626 22.5948H104.531C104.405 22.6788 103.985 22.8468 103.271 23.0988L103.24 23.1303ZM108.469 22.7838L108.5 22.8153V22.8468C108.689 22.7838 108.784 22.7313 108.784 22.6893V22.6263H108.721C108.553 22.6683 108.469 22.7208 108.469 22.7838ZM102.106 22.8153V22.8468C102.106 22.9098 102.158 22.9623 102.263 23.0043C102.431 23.0043 102.62 22.9098 102.83 22.7208V22.6893H102.326C102.179 22.7103 102.106 22.7523 102.106 22.8153ZM112.973 23.3193C112.973 23.4033 113.162 23.4663 113.54 23.5083C113.624 23.4453 113.666 23.3613 113.666 23.2563C113.666 23.1513 113.498 23.0673 113.162 23.0043C113.036 23.0883 112.973 23.1933 112.973 23.3193ZM106.61 23.5713V23.6973C106.904 23.6973 107.219 23.5083 107.555 23.1303V23.0988L107.524 23.0673H107.492C107.24 23.0673 106.946 23.2353 106.61 23.5713ZM114.17 23.1303L114.076 23.2563C114.118 23.3613 114.202 23.4138 114.328 23.4138H114.485L114.643 23.2878V23.2563C114.622 23.1723 114.517 23.1303 114.328 23.1303H114.17ZM110.674 23.4453V23.5083H110.831C111.146 23.4663 111.304 23.4033 111.304 23.3193V23.2563H111.083C110.81 23.2773 110.674 23.3403 110.674 23.4453ZM105.508 23.2878H105.35L105.287 23.4768V24.0438C105.287 24.2958 105.245 24.4638 105.161 24.5478V24.7053L105.287 25.1463V25.3983C105.287 25.5663 105.34 25.6818 105.445 25.7448C105.466 25.7448 105.529 25.5033 105.634 25.0203C105.928 24.7893 106.075 24.6108 106.075 24.4848C106.075 24.3798 105.959 24.1488 105.728 23.7918C105.665 23.4558 105.592 23.2878 105.508 23.2878ZM102.358 23.7918V23.8548H102.673L102.799 23.7288V23.6973L102.641 23.6343C102.452 23.6973 102.358 23.7498 102.358 23.7918ZM113.635 23.8863L113.446 23.7918L113.383 23.8548V23.8863L113.54 23.9808H113.572L113.635 23.8863ZM111.209 24.1068L111.272 24.1698H111.304C111.766 24.1698 111.997 24.1278 111.997 24.0438L111.745 23.9808C111.388 24.0228 111.209 24.0648 111.209 24.1068ZM106.642 25.3353V25.4298C107.188 25.3668 107.944 24.9153 108.91 24.0753V24.0438H108.721C108.637 24.0438 108.385 24.1908 107.965 24.4848C107.083 24.7578 106.642 25.0413 106.642 25.3353ZM114.17 24.1068H114.139V24.2013C114.139 24.2643 114.275 24.5583 114.548 25.0833C114.548 25.2513 114.59 25.3353 114.674 25.3353L114.8 25.2093V25.0833C114.8 24.7473 114.59 24.4218 114.17 24.1068ZM104.374 24.4848L104.437 24.5793H104.5L104.594 24.1698H104.5C104.437 24.1698 104.395 24.2748 104.374 24.4848ZM112.312 24.7053V24.7998H113.099L113.225 24.7053V24.5793L113.068 24.4848H112.91C112.511 24.5478 112.312 24.6213 112.312 24.7053ZM109.193 25.2093C109.655 25.1253 109.886 25.0098 109.886 24.8628L109.792 24.7998H109.697C109.382 24.7998 109.214 24.9363 109.193 25.2093ZM108.185 25.5873V25.6503H108.28C108.616 25.3773 108.784 25.1463 108.784 24.9573H108.721V24.8943C108.553 24.8943 108.374 25.1253 108.185 25.5873ZM105.76 25.2723L105.823 25.4613C105.823 25.6293 105.728 25.7973 105.539 25.9653C105.644 26.0703 105.697 26.1753 105.697 26.2803C105.697 27.3303 105.77 27.8553 105.917 27.8553H105.949C106.117 27.4773 106.201 26.9838 106.201 26.3748C106.18 25.5978 106.085 25.1883 105.917 25.1463H105.854C105.791 25.1463 105.76 25.1883 105.76 25.2723ZM114.643 25.6818V25.7763C114.895 26.7213 115.052 27.2148 115.115 27.2568L115.178 27.0363V26.7528C115.031 26.0388 114.853 25.6818 114.643 25.6818ZM116.06 25.7448H116.029C116.071 26.8578 116.176 27.4143 116.344 27.4143H116.407C116.302 26.3013 116.186 25.7448 116.06 25.7448ZM107.807 25.8078L107.618 26.0598V26.1228L107.65 26.1858H107.807L107.902 25.8078H107.807ZM106.925 26.1228L106.862 26.1858L106.925 26.2803H107.051V26.1858L106.988 26.1228H106.925ZM115.84 29.8398V29.8713L115.934 30.2493H116.092C116.071 29.9763 115.987 29.8398 115.84 29.8398ZM114.643 32.1078L114.674 32.1393H114.706C114.769 32.1393 114.8 32.0343 114.8 31.8243V31.4463C114.716 31.4463 114.664 31.6668 114.643 32.1078ZM114.454 32.6118C114.58 32.7588 114.643 32.9583 114.643 33.2103H114.706L114.8 32.8323V32.2968C114.569 32.2968 114.454 32.4018 114.454 32.6118ZM115.84 32.3283H115.777V32.4858H115.84V32.3283ZM116.564 32.4858L116.501 33.1158V33.9033H116.533C116.806 33.5673 116.942 33.2523 116.942 32.9583V32.9268C116.942 32.6328 116.816 32.4858 116.564 32.4858ZM115.745 33.9348V33.9978H115.777L115.903 33.6513V33.5883H115.84C115.777 33.5883 115.745 33.7038 115.745 33.9348ZM103.586 34.0608L103.523 34.1868V34.2183C103.565 34.5963 103.702 34.7853 103.933 34.7853H104.122L104.216 34.6908V34.6278C104.027 34.3968 103.933 34.2078 103.933 34.0608H103.586ZM115.84 34.5018H115.714V34.6278L115.84 34.7538L115.934 34.6908V34.6278L115.84 34.5018ZM117.541 35.2263V35.3208C118.486 35.3208 118.958 35.2473 118.958 35.1003V35.0373H118.517C117.866 35.0583 117.541 35.1213 117.541 35.2263ZM104.909 35.5413C104.909 35.6463 105.182 35.6988 105.728 35.6988C106.778 35.6988 107.303 35.6463 107.303 35.5413C107.303 35.4153 106.946 35.3523 106.232 35.3523C105.434 35.3523 104.993 35.4153 104.909 35.5413ZM113.446 35.6358H113.351V35.8248L113.446 35.9193H113.54L113.572 35.8248V35.7933L113.446 35.6358ZM117.824 35.8878V35.9823C117.866 36.0873 117.961 36.1398 118.108 36.1398C118.444 36.1398 118.643 36.0663 118.706 35.9193V35.8248C118.664 35.6988 118.549 35.6358 118.36 35.6358H118.202C117.992 35.6358 117.866 35.7198 117.824 35.8878ZM114.139 36.4548C114.202 36.6228 114.307 36.7068 114.454 36.7068C115.588 36.6858 116.155 36.6123 116.155 36.4863C116.008 36.2973 115.745 36.2028 115.367 36.2028C114.548 36.2238 114.139 36.3078 114.139 36.4548ZM113.351 37.0533L113.225 37.1793V37.2423C113.225 37.3893 113.509 37.4628 114.076 37.4628H114.233L114.485 37.3998V37.3683C114.275 37.1583 113.939 37.0533 113.477 37.0533H113.351ZM120.974 13.8063L121.006 13.8378V13.8693L120.911 13.9638C120.932 14.0478 121.016 14.0898 121.163 14.0898H121.226L121.289 13.9953L121.163 13.8378L121.226 13.8063H122.455C123.19 13.8063 123.557 14.0268 123.557 14.4678L123.652 14.5938H123.746L123.841 14.5308V14.4678L123.746 14.2158L123.778 14.1528H123.841C124.366 14.1528 124.628 14.7198 124.628 15.8538C124.628 18.3948 124.775 20.2743 125.069 21.4923H125.195L127.148 21.3978C129.542 21.5448 130.739 21.7548 130.739 22.0278C130.823 22.0278 131.233 22.3533 131.968 23.0043C133.165 24.0123 133.931 24.9993 134.267 25.9653C134.645 26.3853 134.834 27.5298 134.834 29.3988L134.866 30.3438C134.236 31.6458 133.921 32.4228 133.921 32.6748C133.921 33.4308 133.081 34.4283 131.401 35.6673C131.17 36.1923 129.889 36.4653 127.558 36.4863C126.529 36.2973 125.815 36.2028 125.416 36.2028H124.691C124.334 36.2028 124.156 36.3498 124.156 36.6438L123.494 37.4943C123.137 37.5993 122.854 37.6518 122.644 37.6518C122.392 37.6518 121.877 37.4523 121.1 37.0533V36.9588C121.247 36.7908 121.321 36.6228 121.321 36.4548V36.3288L121.226 35.7618L121.289 35.3208V34.7538L121.163 34.1238C121.415 32.7588 121.541 31.8348 121.541 31.3518L121.636 31.0368L121.573 30.6273L121.856 28.3908V28.2648C121.856 27.7188 121.72 26.0178 121.447 23.1618V23.0988L121.384 23.0673L121.447 22.8468V22.7208C121.531 21.4398 121.573 20.2638 121.573 19.1928V16.8303L121.541 16.6413H121.478C120.68 17.0613 120.103 17.2713 119.746 17.2713C119.494 17.2713 119.336 16.7043 119.273 15.5703C119.273 15.4863 119.336 15.3708 119.462 15.2238V15.1293H119.399L119.305 15.1608L119.273 15.1293C119.273 14.3313 119.357 13.9323 119.525 13.9323C119.756 13.8483 120.239 13.8063 120.974 13.8063ZM123.589 13.8378H123.746V13.9323L123.589 13.9638L123.557 13.9323V13.8693L123.589 13.8378ZM121.856 14.3418H121.762V14.3733H121.856V14.3418ZM122.455 14.3418L122.36 14.4363V14.4678H122.581V14.3418H122.455ZM119.872 14.4363H119.525V14.4678C119.525 14.5308 119.746 14.6148 120.187 14.7198C120.628 14.6988 120.848 14.6463 120.848 14.5623V14.5308C120.596 14.4678 120.271 14.4363 119.872 14.4363ZM122.864 14.8458L122.707 15.0033V15.5073L122.801 15.5703C122.969 15.4653 123.053 15.2973 123.053 15.0663C123.053 14.9403 123.022 14.8668 122.959 14.8458H122.864ZM121.667 15.4443L121.793 15.5388H122.14L122.266 15.3813V15.2238L122.14 15.1293C121.825 15.1293 121.667 15.2343 121.667 15.4443ZM120.061 15.1608H119.998L119.966 15.3498V15.6333C119.966 15.7173 120.071 15.7698 120.281 15.7908C120.575 15.7908 120.743 15.6963 120.785 15.5073C120.491 15.2763 120.25 15.1608 120.061 15.1608ZM121.226 15.2553H120.974V15.3183L121.069 15.4443H121.321V15.3498L121.226 15.2553ZM122.738 17.8068C122.801 18.2688 122.885 18.4998 122.99 18.4998H123.022V18.4368C122.98 17.9538 122.906 17.7123 122.801 17.7123C122.759 17.7123 122.738 17.7438 122.738 17.8068ZM129.101 22.0278H128.849V22.0908C128.912 22.2168 129.038 22.2798 129.227 22.2798H129.259V22.1853L129.101 22.0278ZM126.55 22.3743L126.644 22.4688H126.833L127.117 22.3743V22.2168L126.959 22.1853C126.791 22.1853 126.655 22.2483 126.55 22.3743ZM125.132 23.2878V23.4138H125.195C125.72 23.3298 125.983 23.2458 125.983 23.1618V23.0673H125.92C125.689 23.0673 125.426 23.1408 125.132 23.2878ZM130.078 23.1618H129.952C129.952 23.3718 130.256 23.5608 130.865 23.7288C131.285 24.2958 131.59 24.5793 131.779 24.5793V24.5478C131.653 24.1068 131.464 23.8023 131.212 23.6343C130.645 23.3193 130.267 23.1618 130.078 23.1618ZM124.219 29.4303C124.219 29.9343 124.24 30.4173 124.282 30.8793L124.25 31.6668V33.0843C124.25 33.3573 124.744 33.6408 125.731 33.9348C125.962 34.0188 126.361 34.0608 126.928 34.0608C127.978 34.0608 129.29 33.7248 130.865 33.0528C131.369 32.6538 131.936 31.8138 132.566 30.5328L132.755 29.7453C132.755 28.6743 132.43 27.5508 131.779 26.3748C131.632 25.7238 131.285 25.1463 130.739 24.6423L129.322 23.6343C127.852 23.6343 126.329 23.9493 124.754 24.5793C124.586 24.5793 124.471 25.3248 124.408 26.8158C124.282 27.5508 124.219 28.4223 124.219 29.4303ZM133.984 26.1543H133.921V26.2803C133.921 26.4273 133.994 26.5008 134.141 26.5008H134.173V26.4693C134.173 26.3223 134.11 26.2173 133.984 26.1543ZM132.913 26.9733H132.818V27.0678L132.913 27.1308H132.976V27.0678L132.913 26.9733ZM133.133 33.5883V33.6198C133.427 33.6198 133.637 33.1473 133.763 32.2023H133.543C133.459 32.2023 133.343 32.5908 133.196 33.3678C133.154 33.3678 133.133 33.4413 133.133 33.5883ZM132.346 33.0528V33.0843L132.44 33.1473C132.671 33.0423 132.787 32.9268 132.787 32.8008L132.692 32.7063H132.598C132.43 32.8113 132.346 32.9268 132.346 33.0528ZM130.109 33.8088V33.9033L130.204 33.9348H130.267C130.54 33.9348 130.676 33.8823 130.676 33.7773L130.582 33.6513H130.393C130.246 33.6513 130.151 33.7038 130.109 33.8088ZM124.502 33.7773V33.8088C124.523 33.8928 124.597 33.9348 124.723 33.9348V33.9033C124.702 33.8193 124.628 33.7773 124.502 33.7773ZM123.337 33.8088L123.274 33.9033V34.0923L123.337 34.1868H123.368L123.463 34.0923V34.0608C123.463 33.9138 123.421 33.8298 123.337 33.8088ZM131.086 34.6908V34.7853C131.758 34.5963 132.125 34.4388 132.188 34.3128V34.2498C131.999 34.2498 131.632 34.3968 131.086 34.6908ZM121.541 34.6278H121.447V34.7538L121.541 34.7853H121.573V34.7538L121.541 34.6278ZM129.574 34.8483L129.511 34.9113V35.0058H129.794L129.889 34.8798V34.8483H129.574ZM127.243 35.3838L127.306 35.4153H127.621C128.125 35.3733 128.408 35.2998 128.471 35.1948V35.1003H128.377C127.852 35.1003 127.474 35.1948 127.243 35.3838ZM124.66 35.2893H124.439V35.3523C124.439 35.4363 124.618 35.4993 124.975 35.5413H125.038V35.4153C125.038 35.3733 124.912 35.3313 124.66 35.2893ZM122.959 35.8563L123.053 35.8878C123.242 35.7828 123.337 35.6883 123.337 35.6043H123.179C123.032 35.6043 122.959 35.6883 122.959 35.8563ZM122.329 35.7933L122.171 35.8563V35.9508L122.329 36.0768H122.455V35.9508L122.329 35.7933ZM129.889 36.1083H129.794V36.2028H129.889V36.1083ZM138.425 20.9883L140.567 21.7128C140.588 22.0278 140.714 22.3638 140.945 22.7208L141.008 23.0673C140.819 24.4113 140.767 27.2043 140.851 31.4463C140.851 32.0553 141.103 32.4543 141.607 32.6433L141.827 33.1473C141.827 33.2733 142.52 33.3888 143.906 33.4938H144.032C144.473 33.4938 145.019 33.0213 145.67 32.0763C146.174 31.5723 146.51 31.1733 146.678 30.8793H146.836V30.6903L146.773 30.5328C146.899 30.3438 146.993 30.0603 147.056 29.6823H147.088V29.3988L147.655 23.4138V22.8468L147.592 22.5318V22.5003C147.823 22.3323 147.938 22.0698 147.938 21.7128C147.938 21.4818 148.012 21.3558 148.159 21.3348L148.883 21.7128H149.576C150.416 21.7128 151.015 21.8913 151.372 22.2483V22.3743C151.141 22.3743 151.025 22.4163 151.025 22.5003L151.34 23.2248H151.435C151.477 22.9098 151.519 22.7523 151.561 22.7523C151.645 22.8573 151.697 23.0358 151.718 23.2878L151.372 27.1938L151.435 27.2568V27.2883C151.288 27.7293 151.141 28.9998 150.994 31.0998V32.0133C150.994 33.3783 151.057 34.0608 151.183 34.0608H151.309C151.687 34.0608 152.296 33.9768 153.136 33.8088C153.22 33.8298 153.409 33.9558 153.703 34.1868C153.619 36.0768 153.493 37.0218 153.325 37.0218L152.978 36.7383L152.033 36.8013L148.537 36.7383C148.348 36.7383 148.159 36.3078 147.97 35.4468C147.844 35.3418 147.781 35.2158 147.781 35.0688L147.844 34.7853H147.749C147.581 34.7853 146.962 35.0688 145.891 35.6358C145.828 35.7828 145.093 36.0873 143.686 36.5493C143.371 36.7173 142.951 36.8853 142.426 37.0533C142.111 36.8643 141.607 36.6753 140.914 36.4863C139.591 35.1843 138.782 34.0398 138.488 33.0528C137.942 32.2758 137.669 30.6168 137.669 28.0758L138.016 24.3903V24.2958C138.016 24.2538 137.302 24.1173 135.874 23.8863C135.748 23.6973 135.685 23.1723 135.685 22.3113C135.685 21.7443 135.779 21.4608 135.968 21.4608C135.968 21.2298 136.787 21.0723 138.425 20.9883ZM137.89 21.3663L137.764 21.4293V21.4923H137.984V21.4293L137.89 21.3663ZM138.677 21.6183L138.52 21.6813V21.7128C138.52 21.7338 138.677 21.8283 138.992 21.9963C138.992 22.2693 139.013 22.4058 139.055 22.4058H139.244C139.748 22.4058 140.053 22.3218 140.158 22.1538V22.0908C140.158 21.9438 139.843 21.8283 139.213 21.7443C139.213 21.7023 139.087 21.6603 138.835 21.6183H138.677ZM136.535 22.5003H136.126V22.5948L136.189 22.6263H136.283L136.535 22.5948V22.5003ZM136.535 22.8153H136.283V22.8783C136.304 23.0043 136.42 23.0673 136.63 23.0673L136.661 23.0043V22.9413L136.535 22.8153ZM148.253 22.0593H148.19C148.19 22.2693 148.358 22.3743 148.694 22.3743H148.883L148.978 22.3113V22.2798C148.978 22.1748 148.736 22.1013 148.253 22.0593ZM137.354 23.1933C137.354 23.3193 137.69 23.4978 138.362 23.7288H138.677C138.761 23.7288 138.803 23.6553 138.803 23.5083C138.572 23.2773 138.289 23.1303 137.953 23.0673H137.701C137.491 23.0673 137.375 23.1093 137.354 23.1933ZM136.945 23.0988L136.787 23.1618V23.2563L136.819 23.2878V23.3193C137.008 23.2773 137.102 23.2248 137.102 23.1618V23.0988H136.945ZM139.717 23.4453V24.0438L139.811 24.1068C139.937 24.0438 140 23.9178 140 23.7288V23.3823C140 23.2563 139.969 23.1723 139.906 23.1303H139.843C139.759 23.1513 139.717 23.2563 139.717 23.4453ZM136.252 23.3193L136.126 23.4453L136.189 23.5083H136.441L136.535 23.4453L136.409 23.3193H136.252ZM148.537 23.0673L148.442 23.1618V23.2248C148.442 23.3088 148.516 23.3508 148.663 23.3508H148.694C148.841 23.3508 148.925 23.3088 148.946 23.2248V23.1618C148.925 23.0988 148.82 23.0673 148.631 23.0673H148.537ZM138.331 24.8628V25.1148L138.803 24.9573V24.2958L138.74 24.2013C138.635 24.2013 138.499 24.4218 138.331 24.8628ZM148.978 26.5323V26.6583H149.009C149.219 26.6583 149.324 26.4168 149.324 25.9338C149.303 25.7238 149.272 25.6188 149.23 25.6188C149.167 25.6188 149.083 25.9233 148.978 26.5323ZM150.238 27.5088H150.143L150.08 27.6348C150.122 27.7398 150.164 27.7923 150.206 27.7923H150.238V27.5088ZM138.898 28.3908L138.803 28.3593L138.677 28.4853V28.5483L138.803 28.6113L138.898 28.5168V28.3908ZM148.537 29.5248L148.694 29.6823C148.799 29.6403 148.862 29.4303 148.883 29.0523L148.852 28.9893H148.789C148.621 29.1153 148.537 29.2938 148.537 29.5248ZM139.528 29.4618V29.6823C139.528 29.9553 139.664 30.1653 139.937 30.3123H140.032C140.032 29.5353 139.969 29.1468 139.843 29.1468H139.717C139.591 29.2098 139.528 29.3148 139.528 29.4618ZM148.474 29.8713L148.379 29.9658V30.2493L148.474 30.3753C148.6 30.3123 148.694 30.2178 148.757 30.0918V29.9658L148.663 29.8713H148.474ZM138.457 30.2178L138.362 30.3123V30.4383C138.362 31.2573 138.803 32.5383 139.685 34.2813C139.853 34.3863 139.969 34.4388 140.032 34.4388V34.2813L139.118 31.7298C138.845 30.7638 138.635 30.2598 138.488 30.2178H138.457ZM149.23 31.0998L149.104 31.2258V31.2573L149.23 31.3518L149.324 31.2573L149.293 31.0998H149.23ZM145.765 32.6433L145.796 32.7063H145.828C146.332 32.0343 146.584 31.6458 146.584 31.5408V31.4778H146.489C146.321 31.6878 146.08 32.0763 145.765 32.6433ZM140.126 31.5408V31.5723C140.189 31.6983 140.273 31.7613 140.378 31.7613V31.7298C140.378 31.6038 140.294 31.5408 140.126 31.5408ZM149.167 31.6038H149.104V31.7928C149.104 32.1288 149.156 32.5593 149.261 33.0843H149.356C149.44 32.7693 149.482 32.4648 149.482 32.1708V31.9503C149.482 31.7193 149.377 31.6038 149.167 31.6038ZM147.466 31.9188L147.34 31.7613C147.214 31.9293 147.151 32.0553 147.151 32.1393L147.308 32.2338H147.34L147.466 32.1393V31.9188ZM148.537 32.2338H148.474V32.4543H148.537L148.631 32.3598V32.2653L148.537 32.2338ZM141.04 33.1473H141.008V33.2418L141.071 33.3363H141.103V33.2418L141.04 33.1473ZM150.521 33.1788L150.206 33.6513V33.7458H150.521L150.647 33.6513V33.4938C150.647 33.3048 150.605 33.1998 150.521 33.1788ZM147.592 33.7143V33.7458H147.655L147.875 33.5568V33.4308C147.686 33.4308 147.592 33.5253 147.592 33.7143ZM148.537 33.6513L148.442 33.7458V34.1238C148.442 35.5938 148.516 36.3288 148.663 36.3288H148.757C148.904 36.3078 148.978 36.2448 148.978 36.1398C148.81 35.8458 148.715 35.0793 148.694 33.8403L148.537 33.6513ZM140.819 33.8088H140.725V33.9348C140.746 34.0188 140.819 34.0608 140.945 34.0608V33.9348L140.819 33.8088ZM141.607 34.0293H141.512V34.0608C141.512 34.2918 141.88 34.6278 142.615 35.0688C143.455 34.7328 143.875 34.5228 143.875 34.4388V34.4073C143.329 34.4073 142.573 34.2813 141.607 34.0293ZM143.119 35.1948V35.2578H143.497C144.316 35.0688 144.862 34.7853 145.135 34.4073V34.2813H144.977C144.851 34.2813 144.232 34.5858 143.119 35.1948ZM152.411 34.5333L151.435 34.6593V34.7853L151.624 34.8168H151.75C152.212 34.7958 152.443 34.7223 152.443 34.5963V34.5333H152.411ZM152.411 35.0688H152.285V35.2578H152.411L152.506 35.1948V35.1318C152.506 35.0898 152.474 35.0688 152.411 35.0688ZM149.86 35.5728L149.765 35.6358V35.7303C149.807 35.8353 149.933 35.8878 150.143 35.8878H150.458L150.553 35.8248V35.7618C150.553 35.6568 150.416 35.5938 150.143 35.5728H149.86ZM142.52 35.8878H142.268L141.008 35.7618H140.945L140.819 35.8878V35.9193C140.819 36.1083 141.407 36.3183 142.583 36.5493C142.94 36.5493 143.644 36.2868 144.694 35.7618L144.725 35.7303V35.6358H144.505C143.875 35.8038 143.213 35.8878 142.52 35.8878ZM166.712 12.8613L168.098 12.8298C168.959 12.9978 169.39 13.1238 169.39 13.2078C169.432 13.2078 169.474 13.5123 169.516 14.1213C169.747 14.3943 169.862 14.5728 169.862 14.6568C169.757 15.6648 169.663 17.7228 169.579 20.8308C169.537 20.8308 169.516 20.9358 169.516 21.1458C169.348 21.2508 169.264 21.3663 169.264 21.4923V21.9963C169.264 22.4163 169.159 22.8993 168.949 23.4453L168.917 23.8863C168.917 23.9703 169.033 24.0333 169.264 24.0753V24.2958C168.949 26.9628 168.791 28.7058 168.791 29.5248C168.791 30.4908 168.728 30.9738 168.602 30.9738V31.0368C168.728 31.0368 168.802 31.1733 168.823 31.4463L168.791 31.6668V31.7928C168.791 32.1918 168.665 33.1578 168.413 34.6908V35.4153C169.463 35.6463 169.988 35.9508 169.988 36.3288L169.831 36.4863V36.7698L169.988 37.0218C169.82 37.4628 169.222 37.6833 168.193 37.6833H168.004L167.846 37.4313H167.5L166.649 37.6203L165.452 37.5888C165.368 37.5888 165.274 37.0533 165.169 35.9823L165.232 34.9743C164.959 34.9743 164.528 35.2053 163.94 35.6673C162.197 36.6333 160.664 37.1583 159.341 37.2423C158.123 36.9273 157.031 36.3183 156.065 35.4153C155.75 35.1003 155.425 34.6068 155.089 33.9348C154.711 33.4098 154.522 33.0948 154.522 32.9898V32.8638H154.616C154.763 32.9688 155.036 33.3258 155.435 33.9348L155.593 33.9663L155.624 33.9348V33.5253C155.624 33.1053 155.404 32.6013 154.963 32.0133H154.805C154.679 32.0133 154.606 32.2023 154.585 32.5803H154.49L154.427 32.4228C154.469 31.6038 154.501 31.0683 154.522 30.8163H154.711L154.742 31.0998H154.805C154.91 31.0578 154.963 30.9528 154.963 30.7848V30.1863L154.9 30.0918C154.837 30.0918 154.805 30.1758 154.805 30.3438L154.616 30.5328C154.574 30.5328 154.543 30.4593 154.522 30.3123C154.522 28.7373 155.036 27.0573 156.065 25.2723C156.548 24.4323 157.031 23.7603 157.514 23.2563C158.186 22.6473 159.247 22.3428 160.696 22.3428H160.979C163.205 22.3428 165.022 22.9203 166.429 24.0753L166.649 24.2013H166.744C166.933 23.2773 167.122 20.9358 167.311 17.1768C167.416 17.0088 167.5 16.9248 167.563 16.9248C166.891 16.4838 166.429 16.2633 166.177 16.2633C165.988 16.2633 165.872 15.5388 165.83 14.0898C165.872 14.0478 166.04 14.0163 166.334 13.9953V13.8693C166.313 13.7853 166.229 13.7433 166.082 13.7433C165.977 13.6803 165.925 13.6068 165.925 13.5228C165.925 13.3128 166.166 13.2078 166.649 13.2078V13.0818L166.523 12.9558V12.8928L166.712 12.8613ZM166.744 14.2158L166.712 14.3103V14.3418H167.09V14.3103L166.996 14.2158H166.744ZM168.508 14.5308L168.445 14.6253V14.6568H168.917V14.5623L168.697 14.5308H168.508ZM167.531 15.1293L167.594 15.2238C168.098 15.2028 168.35 15.1398 168.35 15.0348L168.224 14.9403H167.846C167.699 14.9403 167.594 15.0033 167.531 15.1293ZM166.712 15.0033L166.649 15.0978V15.1608L166.87 15.2238C166.996 15.2238 167.069 15.1818 167.09 15.0978L166.996 15.0033H166.712ZM159.719 23.1618L159.625 23.2878V23.4453L159.719 23.5083H159.877L160.034 23.3823V23.2878L159.908 23.1618H159.719ZM161.578 23.5083L161.641 23.6343H163.027V23.5083C162.901 23.3823 162.554 23.3088 161.987 23.2878H161.672C161.609 23.3088 161.578 23.3823 161.578 23.5083ZM169.106 23.4453V23.2878H169.264V23.4453H169.106ZM157.577 24.1383V24.2643L157.64 24.2958H157.766C158.501 24.1068 158.869 23.8863 158.869 23.6343C158.848 23.5503 158.743 23.5083 158.554 23.5083H158.396C158.081 23.5083 157.808 23.7183 157.577 24.1383ZM164.35 23.8233L163.909 23.8548H163.846V23.9493C164.35 24.1593 164.675 24.2643 164.822 24.2643H164.854C164.854 24.0543 164.686 23.9073 164.35 23.8233ZM167.405 23.9808H167.279C167.279 24.1908 167.321 24.2958 167.405 24.2958L167.437 24.2643V24.1698L167.405 23.9808ZM160.759 24.5478L160.696 24.6108L160.759 24.6423H160.885L160.979 24.5793V24.5478H160.759ZM156.191 26.7528V26.8473H156.286C156.412 26.8053 156.548 26.5638 156.695 26.1228C157.325 25.2408 157.745 24.7998 157.955 24.7998L158.081 24.5793H157.892C157.808 24.5793 157.462 24.7893 156.853 25.2093C156.454 25.7973 156.233 26.3118 156.191 26.7528ZM159.719 24.7683L159.656 24.8628H159.971L160.066 24.7998V24.7683H159.719ZM161.357 24.9258L161.42 24.9573H161.483L162.176 24.8628V24.7998L161.956 24.7683C161.557 24.7893 161.357 24.8418 161.357 24.9258ZM163.027 24.7683L162.964 24.8628L163.058 24.9573H163.247L163.31 24.8628C163.268 24.7998 163.184 24.7683 163.058 24.7683H163.027ZM164.476 24.7998H164.35L164.476 24.9258L164.539 24.8628L164.476 24.7998ZM165.169 24.9888H164.822C164.822 25.0728 165.127 25.1988 165.736 25.3668H165.767V25.2723C165.599 25.0833 165.4 24.9888 165.169 24.9888ZM156.38 31.1313V31.6038C156.38 31.8978 156.779 32.7483 157.577 34.1553C158.165 34.4703 158.795 34.6278 159.467 34.6278C160.916 34.6278 162.323 34.2813 163.688 33.5883C164.255 32.7273 164.749 32.2968 165.169 32.2968C165.4 32.0658 165.652 31.2783 165.925 29.9343C166.093 29.5563 166.177 29.1678 166.177 28.7688V28.4538C166.177 27.5718 166.061 27.1308 165.83 27.1308C165.347 26.6898 165.106 26.4273 165.106 26.3433L165.232 26.1543C165.232 26.0703 164.927 25.9443 164.318 25.7763L164.129 25.6503L164.161 25.5873H164.633V25.5558C164.633 25.3458 163.489 25.2303 161.2 25.2093L160.759 25.1148C159.079 25.2828 158.239 25.5033 158.239 25.7763C157.462 26.7003 156.958 27.8343 156.727 29.1783C156.496 29.9763 156.38 30.6273 156.38 31.1313ZM165.578 26.1543L165.452 26.2803V26.5323L165.61 26.6898H165.704C165.788 26.6688 165.83 26.5848 165.83 26.4378C165.83 26.3118 165.767 26.2173 165.641 26.1543H165.578ZM155.876 29.5563C155.876 29.6193 155.908 29.6508 155.971 29.6508C156.118 29.6508 156.223 29.4408 156.286 29.0208V28.8318H156.191C156.086 28.8318 155.981 29.0733 155.876 29.5563ZM165.893 34.3128V34.5018C166.019 34.5018 166.082 34.5963 166.082 34.7853H166.145L166.303 34.6278V34.3758C166.219 34.3128 166.177 34.2078 166.177 34.0608H166.082C165.956 34.0818 165.893 34.1658 165.893 34.3128ZM163.531 34.5648V34.6908H163.562C163.772 34.6068 163.94 34.4703 164.066 34.2813V34.2183L164.003 34.1553H163.94C163.793 34.2183 163.657 34.3548 163.531 34.5648ZM160.381 34.9743V35.0688H160.759C162.145 34.9848 162.911 34.7853 163.058 34.4703V34.3758H162.964C161.347 34.6488 160.486 34.8483 160.381 34.9743ZM167.594 34.5018H167.563L167.531 34.7538V35.1633L167.594 35.2578H167.657L167.72 35.1633V34.8483C167.72 34.6383 167.678 34.5228 167.594 34.5018ZM156.443 34.7853H156.317V34.8798C156.317 35.0058 156.664 35.1003 157.357 35.1633V35.0688C156.874 34.8798 156.569 34.7853 156.443 34.7853ZM157.168 35.2893L157.073 35.3523C157.073 35.5833 157.693 35.8143 158.932 36.0453H159.089L159.152 35.9823V35.9508C159.152 35.7198 158.554 35.4993 157.357 35.2893H157.168ZM166.082 35.4153L165.925 35.5413V35.6043H166.019L166.145 35.4783V35.4153H166.082ZM161.168 35.6673V35.7303L161.263 35.7933H161.452C162.124 35.7513 162.46 35.6883 162.46 35.6043L162.365 35.5413H161.767C161.368 35.5413 161.168 35.5833 161.168 35.6673ZM167.815 35.6358H167.657V35.7303L167.72 35.7933H167.878V35.7303L167.815 35.6358ZM159.058 36.5808V36.6753L159.089 36.7698H159.499C159.835 36.7698 160.328 36.6963 160.979 36.5493V36.4863L160.066 36.3918C159.394 36.4338 159.058 36.4968 159.058 36.5808ZM168.319 36.6438C168.34 36.7278 168.445 36.7698 168.634 36.7698H169.264L169.484 36.7068V36.6438C169.484 36.5808 169.358 36.5283 169.106 36.4863C168.581 36.5073 168.319 36.5598 168.319 36.6438Z" fill="#1B065E"/>
</svg>
