<svg width="262" height="184" viewBox="0 0 262 184" fill="none" xmlns="http://www.w3.org/2000/svg">
<circle cx="52.2" cy="11.2" r="11.2" fill="#00E8FC"/>
<circle cx="84.2" cy="11.2" r="11.2" fill="#00E8FC"/>
<rect x="25" y="28.8003" width="22.4" height="22.4" fill="#F5B700"/>
<rect x="57" y="28.8003" width="22.4" height="22.4" fill="#F5B700"/>
<rect x="89" y="28.8003" width="22.4" height="22.4" fill="#F5B700"/>
<path d="M11.5332 172.667C11.5332 162.183 12.9272 153.236 15.7152 145.824C18.5032 138.412 22.0656 132.248 26.4025 127.333C30.747 122.422 35.6109 118.62 40.9942 115.926C46.3775 113.233 51.6683 111.369 56.8665 110.333V93.3335C43.9276 91.7279 33.1364 87.7367 24.4929 81.3598C15.8493 74.9829 11.5294 67.6408 11.5332 59.3335H124.867C124.867 67.6446 120.545 74.9886 111.901 81.3655C103.258 87.7424 92.4683 91.7317 79.5332 93.3335V110.333C84.7276 111.372 90.0165 113.239 95.3999 115.932C100.783 118.626 105.647 122.426 109.992 127.333C114.336 132.245 117.902 138.408 120.69 145.824C123.478 153.24 124.87 162.187 124.867 172.667H90.8665V161.333H112.825C111.125 146.978 105.764 136.589 96.7429 130.167C87.7215 123.745 78.2072 120.533 68.1999 120.533C58.1888 120.533 48.6725 123.745 39.6512 130.167C30.6299 136.589 25.2711 146.978 23.5749 161.333H45.5332V172.667H11.5332ZM68.1999 172.667C65.0832 172.667 62.4142 171.556 60.1929 169.335C57.9715 167.113 56.8628 164.446 56.8665 161.333C56.8665 159.728 57.1744 158.264 57.7902 156.942C58.406 155.62 59.2314 154.439 60.2665 153.4C62.5332 151.133 66.3582 148.748 71.7415 146.243C77.1249 143.738 83.4999 141.213 90.8665 138.667C88.2221 146.033 85.6721 152.408 83.2165 157.792C80.761 163.175 78.3999 167 76.1332 169.267C75.0943 170.306 73.9137 171.133 72.5915 171.749C71.2693 172.365 69.8054 172.671 68.1999 172.667Z" fill="black"/>
<rect x="147.8" y="58.7999" width="113.6" height="113.6" rx="7.6" fill="white"/>
<path d="M184.009 107.809V124.1H180.564V111.079H180.469L176.738 113.417V110.363L180.771 107.809H184.009ZM193.958 124.323C192.733 124.323 191.643 124.124 190.688 123.726C189.739 123.323 188.994 122.774 188.453 122.08C187.912 121.385 187.642 120.597 187.642 119.717C187.642 119.038 187.796 118.415 188.103 117.848C188.416 117.275 188.84 116.8 189.376 116.424C189.911 116.042 190.511 115.798 191.174 115.692V115.581C190.304 115.406 189.599 114.984 189.058 114.316C188.517 113.643 188.246 112.86 188.246 111.969C188.246 111.126 188.493 110.376 188.986 109.718C189.479 109.055 190.155 108.536 191.015 108.159C191.879 107.777 192.86 107.586 193.958 107.586C195.055 107.586 196.034 107.777 196.893 108.159C197.757 108.541 198.436 109.063 198.929 109.726C199.422 110.384 199.672 111.132 199.677 111.969C199.672 112.866 199.396 113.648 198.85 114.316C198.304 114.984 197.604 115.406 196.75 115.581V115.692C197.402 115.798 197.993 116.042 198.524 116.424C199.059 116.8 199.483 117.275 199.796 117.848C200.115 118.415 200.276 119.038 200.282 119.717C200.276 120.597 200.003 121.385 199.462 122.08C198.921 122.774 198.174 123.323 197.219 123.726C196.27 124.124 195.183 124.323 193.958 124.323ZM193.958 121.793C194.504 121.793 194.981 121.695 195.39 121.499C195.798 121.297 196.116 121.022 196.344 120.672C196.577 120.316 196.694 119.908 196.694 119.447C196.694 118.975 196.575 118.558 196.336 118.198C196.097 117.832 195.774 117.546 195.366 117.339C194.957 117.127 194.488 117.021 193.958 117.021C193.433 117.021 192.963 117.127 192.55 117.339C192.136 117.546 191.81 117.832 191.571 118.198C191.338 118.558 191.221 118.975 191.221 119.447C191.221 119.908 191.335 120.316 191.563 120.672C191.791 121.022 192.112 121.297 192.526 121.499C192.94 121.695 193.417 121.793 193.958 121.793ZM193.958 114.515C194.414 114.515 194.819 114.422 195.175 114.236C195.53 114.051 195.808 113.794 196.01 113.465C196.211 113.136 196.312 112.757 196.312 112.327C196.312 111.903 196.211 111.532 196.01 111.214C195.808 110.89 195.533 110.638 195.183 110.458C194.833 110.272 194.424 110.18 193.958 110.18C193.496 110.18 193.088 110.272 192.733 110.458C192.377 110.638 192.099 110.89 191.897 111.214C191.701 111.532 191.603 111.903 191.603 112.327C191.603 112.757 191.704 113.136 191.905 113.465C192.107 113.794 192.385 114.051 192.741 114.236C193.096 114.422 193.502 114.515 193.958 114.515ZM202.785 124.1V107.809H206.23V114.992H206.444L212.307 107.809H216.435L210.39 115.104L216.507 124.1H212.386L207.924 117.402L206.23 119.471V124.1H202.785ZM228.113 113.075C228.001 112.688 227.845 112.346 227.643 112.049C227.442 111.747 227.195 111.492 226.903 111.285C226.617 111.073 226.288 110.911 225.917 110.8C225.551 110.689 225.145 110.633 224.7 110.633C223.867 110.633 223.136 110.84 222.505 111.254C221.879 111.667 221.391 112.269 221.041 113.059C220.691 113.844 220.516 114.804 220.516 115.939C220.516 117.074 220.688 118.039 221.033 118.834C221.378 119.63 221.866 120.237 222.497 120.656C223.128 121.069 223.873 121.276 224.732 121.276C225.511 121.276 226.177 121.138 226.728 120.863C227.285 120.582 227.709 120.186 228.001 119.677C228.298 119.168 228.447 118.566 228.447 117.872L229.147 117.975H224.947V115.382H231.764V117.434C231.764 118.866 231.461 120.096 230.857 121.125C230.252 122.149 229.42 122.939 228.359 123.496C227.298 124.047 226.084 124.323 224.716 124.323C223.189 124.323 221.847 123.986 220.691 123.313C219.535 122.634 218.633 121.671 217.986 120.425C217.345 119.174 217.024 117.689 217.024 115.971C217.024 114.65 217.215 113.473 217.597 112.439C217.984 111.399 218.525 110.519 219.219 109.798C219.914 109.077 220.723 108.528 221.645 108.151C222.568 107.775 223.568 107.586 224.644 107.586C225.567 107.586 226.426 107.722 227.222 107.992C228.017 108.257 228.722 108.634 229.338 109.122C229.958 109.61 230.464 110.19 230.857 110.864C231.249 111.532 231.501 112.269 231.613 113.075H228.113Z" fill="#161616"/>
<mask id="path-9-inside-1_180_808" fill="white">
<path d="M147.641 101.6L162.389 116.348L147.641 131.096L134.59 118.045C133.652 117.107 133.652 115.588 134.59 114.651L147.641 101.6Z"/>
</mask>
<path d="M147.641 101.6L162.389 116.348L147.641 131.096L134.59 118.045C133.652 117.107 133.652 115.588 134.59 114.651L147.641 101.6Z" fill="white"/>
<path d="M147.641 101.6L162.389 116.348L147.641 101.6ZM147.075 131.661L134.024 118.61C132.774 117.361 132.774 115.335 134.024 114.085L135.155 115.216C134.53 115.841 134.53 116.854 135.155 117.479L148.206 130.53L147.075 131.661ZM134.024 118.61C132.774 117.361 132.774 115.335 134.024 114.085L147.075 101.034L148.206 102.165L135.155 115.216C134.53 115.841 134.53 116.854 135.155 117.479L134.024 118.61ZM162.389 116.348L147.641 131.096L162.389 116.348Z" fill="#A2A2A2" mask="url(#path-9-inside-1_180_808)"/>
<rect x="147.8" y="58.7999" width="113.6" height="113.6" rx="7.6" stroke="#A2A2A2" stroke-width="0.8"/>
</svg>
