<svg width="29" height="29" viewBox="0 0 29 29" fill="none" xmlns="http://www.w3.org/2000/svg">
<path d="M11.0416 18.9342C11.2388 19.0735 11.4646 19.1672 11.7024 19.2084C11.9403 19.2497 12.1844 19.2375 12.417 19.1728C12.6496 19.1081 12.8649 18.9925 13.0473 18.8343C13.2297 18.6761 13.3746 18.4793 13.4716 18.2582L14.2416 15.9182C14.4291 15.3554 14.745 14.8439 15.1643 14.4242C15.5836 14.0045 16.0949 13.6882 16.6576 13.5002L18.8956 12.7732C19.2134 12.662 19.4883 12.4539 19.6816 12.1782C19.8305 11.9689 19.9275 11.7272 19.9646 11.4729C20.0016 11.2187 19.9777 10.9594 19.8948 10.7162C19.8118 10.4731 19.6723 10.2532 19.4876 10.0746C19.3029 9.89603 19.0784 9.76394 18.8326 9.68924L16.6176 8.96924C16.0545 8.78244 15.5426 8.46703 15.1225 8.04802C14.7025 7.629 14.3858 7.11791 14.1976 6.55524L13.4706 4.31824C13.3587 4.00135 13.1511 3.72705 12.8766 3.53324C12.6003 3.34274 12.2727 3.24072 11.9371 3.24072C11.6015 3.24072 11.2739 3.34274 10.9976 3.53324C10.7186 3.73031 10.5087 4.0102 10.3976 4.33324L9.6616 6.59824C9.47405 7.14641 9.16416 7.64469 8.75544 8.05531C8.34672 8.46594 7.84989 8.77813 7.3026 8.96824L5.0626 9.69424C4.74386 9.80691 4.46816 10.0161 4.27387 10.2928C4.07958 10.5695 3.97635 10.8998 3.97855 11.2379C3.98075 11.5759 4.08827 11.9049 4.28615 12.179C4.48402 12.4531 4.76242 12.6587 5.0826 12.7672L7.2986 13.4872C8.01716 13.7281 8.6488 14.1754 9.1146 14.7732C9.3806 15.1162 9.5856 15.5012 9.7206 15.9132L10.4486 18.1472C10.5606 18.4652 10.7686 18.7402 11.0436 18.9342H11.0416ZM20.7856 25.0142C20.9891 25.1581 21.2324 25.235 21.4816 25.2342C21.7291 25.235 21.9708 25.1592 22.1736 25.0172C22.3819 24.8693 22.538 24.6593 22.6196 24.4172L22.9916 23.2742C23.0702 23.0369 23.2031 22.8211 23.3796 22.6441C23.5561 22.467 23.7715 22.3335 24.0086 22.2542L25.1746 21.8762C25.4099 21.7927 25.6136 21.6385 25.7581 21.4349C25.9025 21.2312 25.9806 20.9879 25.9816 20.7382C25.9816 20.4822 25.8997 20.2328 25.7478 20.0266C25.596 19.8204 25.3822 19.6682 25.1376 19.5922L23.9936 19.2222C23.7561 19.1435 23.5403 19.0105 23.3633 18.8338C23.1862 18.6571 23.0528 18.4415 22.9736 18.2042L22.5936 17.0412C22.5117 16.8039 22.3573 16.5982 22.1523 16.4532C21.9473 16.3082 21.702 16.2311 21.4509 16.2329C21.1998 16.2346 20.9555 16.3151 20.7526 16.463C20.5496 16.6109 20.3982 16.8187 20.3196 17.0572L19.9456 18.2032C19.869 18.4374 19.7396 18.6509 19.5674 18.8273C19.3953 19.0036 19.1849 19.138 18.9526 19.2202L17.7866 19.5982C17.5512 19.6819 17.3473 19.8362 17.2028 20.04C17.0584 20.2439 16.9804 20.4874 16.9796 20.7372C16.9799 20.9893 17.0595 21.2349 17.2072 21.4392C17.355 21.6435 17.5633 21.796 17.8026 21.8752L18.9466 22.2472C19.1847 22.3262 19.401 22.4599 19.5781 22.6376C19.7552 22.8152 19.8883 23.0319 19.9666 23.2702L20.3456 24.4332C20.4283 24.6682 20.5821 24.8706 20.7856 25.0142Z" fill="#1B065E"/>
</svg>
